<?xml version="1.0" encoding="UTF-8" standalone="no"?>
<svg
   xmlns:dc="http://purl.org/dc/elements/1.1/"
   xmlns:cc="http://creativecommons.org/ns#"
   xmlns:rdf="http://www.w3.org/1999/02/22-rdf-syntax-ns#"
   xmlns:svg="http://www.w3.org/2000/svg"
   xmlns="http://www.w3.org/2000/svg"
   xmlns:xlink="http://www.w3.org/1999/xlink"
   xmlns:sodipodi="http://sodipodi.sourceforge.net/DTD/sodipodi-0.dtd"
   xmlns:inkscape="http://www.inkscape.org/namespaces/inkscape"
   id="svg2"
   height="548.55035pt"
   width="916.00739pt"
   version="1.0"
   sodipodi:docname="app_icon.svg"
   inkscape:version="0.92.5 (2060ec1f9f, 2020-04-08)">
  <sodipodi:namedview
     pagecolor="#ffffff"
     bordercolor="#666666"
     borderopacity="1"
     objecttolerance="10"
     gridtolerance="10"
     guidetolerance="10"
     inkscape:pageopacity="0"
     inkscape:pageshadow="2"
     inkscape:window-width="1920"
     inkscape:window-height="1016"
     id="namedview854"
     showgrid="false"
     inkscape:zoom="0.68737818"
     inkscape:cx="-977.61802"
     inkscape:cy="394.91189"
     inkscape:window-x="0"
     inkscape:window-y="27"
     inkscape:window-maximized="1"
     inkscape:current-layer="svg2"
     showborder="false" />
  <metadata
     id="metadata17">
    <rdf:RDF>
      <cc:Work
         rdf:about="">
        <dc:format>image/svg+xml</dc:format>
        <dc:type
           rdf:resource="http://purl.org/dc/dcmitype/StillImage" />
        <dc:title />
      </cc:Work>
    </rdf:RDF>
  </metadata>
  <defs
     id="defs4">
    <linearGradient
       inkscape:collect="always"
       id="linearGradient4670">
      <stop
         style="stop-color:#47356b;stop-opacity:1"
         offset="0"
         id="stop4666" />
      <stop
         style="stop-color:#2d001c;stop-opacity:1"
         offset="1"
         id="stop4668" />
    </linearGradient>
    <linearGradient
       inkscape:collect="always"
       id="linearGradient3819">
      <stop
         style="stop-color:#8d00ff;stop-opacity:1;"
         offset="0"
         id="stop3815" />
      <stop
         style="stop-color:#0100ff;stop-opacity:0"
         offset="1"
         id="stop3817" />
    </linearGradient>
    <inkscape:path-effect
       effect="taper_stroke"
       id="path-effect4618"
       is_visible="true"
       stroke_width="18.533001"
       attach_start="0.2"
       end_offset="0.2"
       smoothing="0.5"
       jointype="extrapolated"
       miter_limit="100" />
    <inkscape:path-effect
       effect="simplify"
       id="path-effect913"
       is_visible="true"
       steps="1"
       threshold="0.002"
       smooth_angles="360"
       helper_size="5"
       simplify_individual_paths="false"
       simplify_just_coalesce="false" />
    <clipPath
       id="clipPath4593"
       clipPathUnits="userSpaceOnUse">
      <rect
         y="144.81361"
         x="108.15195"
         height="487.60031"
         width="975.20062"
         id="rect4595"
         style="opacity:1;fill:#000000;fill-opacity:0;fill-rule:evenodd;stroke:#5b6cff;stroke-width:18.53300095;stroke-miterlimit:4;stroke-dasharray:none;stroke-opacity:1" />
    </clipPath>
    <clipPath
       id="clipPath4597"
       clipPathUnits="userSpaceOnUse">
      <rect
         y="144.81361"
         x="108.15195"
         height="487.60031"
         width="975.20062"
         id="rect4599"
         style="opacity:1;fill:#000000;fill-opacity:0;fill-rule:evenodd;stroke:#5b6cff;stroke-width:18.53300095;stroke-miterlimit:4;stroke-dasharray:none;stroke-opacity:1" />
    </clipPath>
    <clipPath
       clipPathUnits="userSpaceOnUse"
       id="clipPath864">
      <rect
         style="opacity:1;fill:#000000;fill-opacity:0;stroke:none;stroke-width:2.79999995;stroke-miterlimit:4;stroke-dasharray:none;stroke-opacity:0.98039216"
         id="rect866"
         width="585.3432"
         height="542.81824"
         x="115.06746"
         y="78.51767" />
    </clipPath>
    <clipPath
       clipPathUnits="userSpaceOnUse"
       id="clipPath868">
      <rect
         style="opacity:1;fill:#000000;fill-opacity:0;stroke:none;stroke-width:2.79999995;stroke-miterlimit:4;stroke-dasharray:none;stroke-opacity:0.98039216"
         id="rect870"
         width="585.3432"
         height="542.81824"
         x="115.06746"
         y="78.51767" />
    </clipPath>
    <clipPath
       clipPathUnits="userSpaceOnUse"
       id="clipPath872">
      <rect
         style="opacity:1;fill:#000000;fill-opacity:0;stroke:none;stroke-width:2.79999995;stroke-miterlimit:4;stroke-dasharray:none;stroke-opacity:0.98039216"
         id="rect874"
         width="585.3432"
         height="542.81824"
         x="115.06746"
         y="78.51767" />
    </clipPath>
    <clipPath
       clipPathUnits="userSpaceOnUse"
       id="clipPath876">
      <rect
         style="opacity:1;fill:#000000;fill-opacity:0;stroke:none;stroke-width:2.79999995;stroke-miterlimit:4;stroke-dasharray:none;stroke-opacity:0.98039216"
         id="rect878"
         width="585.3432"
         height="542.81824"
         x="115.06746"
         y="78.51767" />
    </clipPath>
    <clipPath
       clipPathUnits="userSpaceOnUse"
       id="clipPath880">
      <rect
         style="opacity:1;fill:#000000;fill-opacity:0;stroke:none;stroke-width:2.79999995;stroke-miterlimit:4;stroke-dasharray:none;stroke-opacity:0.98039216"
         id="rect882"
         width="585.3432"
         height="542.81824"
         x="115.06746"
         y="78.51767" />
    </clipPath>
    <clipPath
       clipPathUnits="userSpaceOnUse"
       id="clipPath884">
      <rect
         style="opacity:1;fill:#000000;fill-opacity:0;stroke:none;stroke-width:2.79999995;stroke-miterlimit:4;stroke-dasharray:none;stroke-opacity:0.98039216"
         id="rect886"
         width="585.3432"
         height="542.81824"
         x="107.99224"
         y="105.65668" />
    </clipPath>
    <clipPath
       clipPathUnits="userSpaceOnUse"
       id="clipPath897">
      <rect
         style="opacity:1;fill:#000000;fill-opacity:0;stroke:none;stroke-width:2.79999995;stroke-miterlimit:4;stroke-dasharray:none;stroke-opacity:0.98039216"
         id="rect899"
         width="1060.6218"
         height="647.87988"
         x="75.043999"
         y="35.992737" />
    </clipPath>
    <clipPath
       clipPathUnits="userSpaceOnUse"
       id="clipPath901">
      <rect
         style="opacity:1;fill:#000000;fill-opacity:0;stroke:none;stroke-width:2.79999995;stroke-miterlimit:4;stroke-dasharray:none;stroke-opacity:0.98039216"
         id="rect903"
         width="1060.6218"
         height="647.87988"
         x="75.043999"
         y="35.992737"
         d="M 75.043999,35.992737 H 1135.6658 V 683.87262 H 75.043999 Z" />
    </clipPath>
    <clipPath
       clipPathUnits="userSpaceOnUse"
       id="clipPath905">
      <rect
         style="opacity:1;fill:#000000;fill-opacity:0;stroke:none;stroke-width:2.79999995;stroke-miterlimit:4;stroke-dasharray:none;stroke-opacity:0.98039216"
         id="rect907"
         width="1170.1663"
         height="714.79498"
         x="-85.117966"
         y="17.766163" />
    </clipPath>
    <clipPath
       clipPathUnits="userSpaceOnUse"
       id="clipPath909">
      <rect
         style="opacity:1;fill:#000000;fill-opacity:0;stroke:none;stroke-width:2.79999995;stroke-miterlimit:4;stroke-dasharray:none;stroke-opacity:0.98039216"
         id="rect911"
         width="1060.6218"
         height="647.87988"
         x="-66.377731"
         y="23.453377" />
    </clipPath>
    <clipPath
       clipPathUnits="userSpaceOnUse"
       id="clipPath4645">
      <rect
         style="opacity:1;fill:#000000;fill-opacity:0;stroke:none;stroke-width:2.79999995;stroke-miterlimit:4;stroke-dasharray:none;stroke-opacity:0.98039216"
         id="rect4647"
         width="303.92819"
         height="102.56013"
         x="-1160.4224"
         y="252.83858"
         transform="scale(-1,1)" />
    </clipPath>
    <clipPath
       clipPathUnits="userSpaceOnUse"
       id="clipPath4657">
      <rect
         style="opacity:1;fill:#000000;fill-opacity:0;stroke:none;stroke-width:2.79999995;stroke-miterlimit:4;stroke-dasharray:none;stroke-opacity:0.98039216"
         id="rect4659"
         width="939.10229"
         height="92.180847"
         x="202.6188"
         y="253.62033" />
    </clipPath>
    <clipPath
       clipPathUnits="userSpaceOnUse"
       id="clipPath4697">
      <rect
         style="opacity:1;fill:none;fill-opacity:1;stroke:none;stroke-width:2.79999995;stroke-miterlimit:4;stroke-dasharray:none;stroke-opacity:0.98039216"
         id="rect4699"
         width="336.07275"
         height="175.1116"
         x="841.95081"
         y="225.5121" />
    </clipPath>
    <clipPath
       clipPathUnits="userSpaceOnUse"
       id="clipPath909-3">
      <rect
         style="opacity:1;fill:#000000;fill-opacity:0;stroke:none;stroke-width:2.79999995;stroke-miterlimit:4;stroke-dasharray:none;stroke-opacity:0.98039216"
         id="rect911-6"
         width="1060.6218"
         height="647.87988"
         x="-66.377731"
         y="23.453377" />
    </clipPath>
    <clipPath
       clipPathUnits="userSpaceOnUse"
       id="clipPath4697-5">
      <rect
         style="opacity:1;fill:none;fill-opacity:1;stroke:none;stroke-width:2.79999995;stroke-miterlimit:4;stroke-dasharray:none;stroke-opacity:0.98039216"
         id="rect4699-6"
         width="336.07275"
         height="175.1116"
         x="841.95081"
         y="225.5121" />
    </clipPath>
    <clipPath
       clipPathUnits="userSpaceOnUse"
       id="clipPath4645-3">
      <rect
         style="opacity:1;fill:#000000;fill-opacity:0;stroke:none;stroke-width:2.79999995;stroke-miterlimit:4;stroke-dasharray:none;stroke-opacity:0.98039216"
         id="rect4647-9"
         width="303.92819"
         height="102.56013"
         x="-1160.4224"
         y="252.83858"
         transform="scale(-1,1)" />
    </clipPath>
    <clipPath
       clipPathUnits="userSpaceOnUse"
       id="clipPath9576">
      <rect
         style="opacity:1;fill:none;fill-opacity:1;stroke:none;stroke-width:2.79999995;stroke-miterlimit:4;stroke-dasharray:none;stroke-opacity:0.98039216"
         id="rect9574"
         width="336.07275"
         height="175.1116"
         x="841.95081"
         y="225.5121" />
    </clipPath>
    <clipPath
       clipPathUnits="userSpaceOnUse"
       id="clipPath9580">
      <rect
         style="opacity:1;fill:#000000;fill-opacity:0;stroke:none;stroke-width:2.79999995;stroke-miterlimit:4;stroke-dasharray:none;stroke-opacity:0.98039216"
         id="rect9578"
         width="303.92819"
         height="102.56013"
         x="-1160.4224"
         y="252.83858"
         transform="scale(-1,1)" />
    </clipPath>
    <clipPath
       clipPathUnits="userSpaceOnUse"
       id="clipPath3096">
      <rect
         style="opacity:1;fill:#ff5555;fill-opacity:1;stroke:#ff0000;stroke-width:15.36377811;stroke-linecap:round;stroke-linejoin:round;stroke-miterlimit:4;stroke-dasharray:none;stroke-opacity:0"
         id="rect3098"
         width="637.81659"
         height="204.63965"
         x="326.80707"
         y="262.48901"
         ry="77.042763" />
    </clipPath>
    <clipPath
       clipPathUnits="userSpaceOnUse"
       id="clipPath3100">
      <rect
         style="opacity:1;fill:#ff5555;fill-opacity:1;stroke:#ff0000;stroke-width:15.36377811;stroke-linecap:round;stroke-linejoin:round;stroke-miterlimit:4;stroke-dasharray:none;stroke-opacity:0"
         id="rect3102"
         width="637.81659"
         height="237.43675"
         x="-947.51672"
         y="348.28995"
         ry="89.390221" />
    </clipPath>
    <clipPath
       clipPathUnits="userSpaceOnUse"
       id="clipPath3104">
      <rect
         style="opacity:1;fill:#ff5555;fill-opacity:1;stroke:#ff0000;stroke-width:15.36377811;stroke-linecap:round;stroke-linejoin:round;stroke-miterlimit:4;stroke-dasharray:none;stroke-opacity:0"
         id="rect3106"
         width="637.81659"
         height="237.43675"
         x="-947.51672"
         y="348.28995"
         ry="89.390221" />
    </clipPath>
    <clipPath
       clipPathUnits="userSpaceOnUse"
       id="clipPath3108">
      <rect
         style="opacity:1;fill:#ff5555;fill-opacity:1;stroke:#ff0000;stroke-width:15.36377811;stroke-linecap:round;stroke-linejoin:round;stroke-miterlimit:4;stroke-dasharray:none;stroke-opacity:0"
         id="rect3110"
         width="637.81659"
         height="237.43675"
         x="-947.51672"
         y="348.28995"
         ry="89.390221" />
    </clipPath>
    <clipPath
       clipPathUnits="userSpaceOnUse"
       id="clipPath3112">
      <rect
         style="opacity:1;fill:#ff5555;fill-opacity:1;stroke:#ff0000;stroke-width:15.36377811;stroke-linecap:round;stroke-linejoin:round;stroke-miterlimit:4;stroke-dasharray:none;stroke-opacity:0"
         id="rect3114"
         width="637.81659"
         height="237.43675"
         x="-947.51672"
         y="348.28995"
         ry="89.390221" />
    </clipPath>
    <clipPath
       clipPathUnits="userSpaceOnUse"
       id="clipPath3116">
      <rect
         style="opacity:1;fill:#ff5555;fill-opacity:1;stroke:#ff0000;stroke-width:15.36377811;stroke-linecap:round;stroke-linejoin:round;stroke-miterlimit:4;stroke-dasharray:none;stroke-opacity:0"
         id="rect3118"
         width="637.81659"
         height="237.43675"
         x="-947.51672"
         y="348.28995"
         ry="89.390221" />
    </clipPath>
    <clipPath
       clipPathUnits="userSpaceOnUse"
       id="clipPath3120">
      <rect
         style="opacity:1;fill:#ff5555;fill-opacity:1;stroke:#ff0000;stroke-width:15.36377811;stroke-linecap:round;stroke-linejoin:round;stroke-miterlimit:4;stroke-dasharray:none;stroke-opacity:0"
         id="rect3122"
         width="637.81659"
         height="237.43675"
         x="-947.51672"
         y="348.28995"
         ry="89.390221" />
    </clipPath>
    <clipPath
       clipPathUnits="userSpaceOnUse"
       id="clipPath3124">
      <rect
         style="opacity:1;fill:#ff5555;fill-opacity:1;stroke:#ff0000;stroke-width:15.36377811;stroke-linecap:round;stroke-linejoin:round;stroke-miterlimit:4;stroke-dasharray:none;stroke-opacity:0"
         id="rect3126"
         width="637.81659"
         height="237.43675"
         x="-947.51672"
         y="348.28995"
         ry="89.390221" />
    </clipPath>
    <clipPath
       clipPathUnits="userSpaceOnUse"
       id="clipPath3128">
      <rect
         style="opacity:1;fill:#ff5555;fill-opacity:1;stroke:#ff0000;stroke-width:15.36377811;stroke-linecap:round;stroke-linejoin:round;stroke-miterlimit:4;stroke-dasharray:none;stroke-opacity:0"
         id="rect3130"
         width="637.81659"
         height="237.43675"
         x="-947.51672"
         y="348.28995"
         ry="89.390221" />
    </clipPath>
    <clipPath
       clipPathUnits="userSpaceOnUse"
       id="clipPath3132">
      <rect
         style="opacity:1;fill:#ff5555;fill-opacity:1;stroke:#ff0000;stroke-width:15.36377811;stroke-linecap:round;stroke-linejoin:round;stroke-miterlimit:4;stroke-dasharray:none;stroke-opacity:0"
         id="rect3134"
         width="637.81659"
         height="237.43675"
         x="-947.51672"
         y="348.28995"
         ry="89.390221" />
    </clipPath>
    <clipPath
       clipPathUnits="userSpaceOnUse"
       id="clipPath3136">
      <rect
         style="opacity:1;fill:#ff5555;fill-opacity:1;stroke:#ff0000;stroke-width:15.36377811;stroke-linecap:round;stroke-linejoin:round;stroke-miterlimit:4;stroke-dasharray:none;stroke-opacity:0"
         id="rect3138"
         width="637.81659"
         height="237.43675"
         x="-947.51672"
         y="348.28995"
         ry="89.390221" />
    </clipPath>
    <clipPath
       clipPathUnits="userSpaceOnUse"
       id="clipPath3140">
      <rect
         style="opacity:1;fill:#ff5555;fill-opacity:1;stroke:#ff0000;stroke-width:15.36377811;stroke-linecap:round;stroke-linejoin:round;stroke-miterlimit:4;stroke-dasharray:none;stroke-opacity:0"
         id="rect3142"
         width="637.81659"
         height="237.43675"
         x="-947.51672"
         y="348.28995"
         ry="89.390221" />
    </clipPath>
    <clipPath
       clipPathUnits="userSpaceOnUse"
       id="clipPath3144">
      <rect
         style="opacity:1;fill:#ff5555;fill-opacity:1;stroke:#ff0000;stroke-width:15.36377811;stroke-linecap:round;stroke-linejoin:round;stroke-miterlimit:4;stroke-dasharray:none;stroke-opacity:0"
         id="rect3146"
         width="637.81659"
         height="237.43675"
         x="-947.51672"
         y="348.28995"
         ry="89.390221" />
    </clipPath>
    <clipPath
       clipPathUnits="userSpaceOnUse"
       id="clipPath3148">
      <rect
         style="opacity:1;fill:#ff5555;fill-opacity:1;stroke:#ff0000;stroke-width:15.36377811;stroke-linecap:round;stroke-linejoin:round;stroke-miterlimit:4;stroke-dasharray:none;stroke-opacity:0"
         id="rect3150"
         width="2040.5038"
         height="430.10242"
         x="-1007.9016"
         y="643.69653"
         ry="161.92502" />
    </clipPath>
    <linearGradient
       inkscape:collect="always"
       xlink:href="#linearGradient3819"
       id="linearGradient3821"
       x1="263.82269"
       y1="79.326614"
       x2="1012.754"
       y2="633.88989"
       gradientUnits="userSpaceOnUse" />
    <linearGradient
       inkscape:collect="always"
       xlink:href="#linearGradient4670"
       id="linearGradient3829"
       x1="-862.16602"
       y1="41.160114"
       x2="-871.01685"
       y2="713.33453"
       gradientUnits="userSpaceOnUse" />
    <linearGradient
       inkscape:collect="always"
       xlink:href="#linearGradient3819"
       id="linearGradient4672"
       gradientUnits="userSpaceOnUse"
       x1="999.93213"
       y1="624.53564"
       x2="468.58249"
       y2="18.771048" />
  </defs>
  <rect
     style="opacity:1;fill:url(#linearGradient3829);fill-opacity:1;stroke:none;stroke-width:15.36378002;stroke-linecap:round;stroke-linejoin:round;stroke-miterlimit:4;stroke-dasharray:none;stroke-opacity:1"
     id="rect3813"
     width="634.63623"
     height="634.63617"
     x="-1187.4182"
     y="37.74704"
     ry="0"
     inkscape:export-xdpi="77.449097"
     inkscape:export-ydpi="77.449097" />
  <g
     id="g1321"
     transform="matrix(0.312578,0,0,0.552047,-632.46886,-7.0607847)"
     clip-path="url(#clipPath3148)" />
  <text
     id="text4530"
     y="101.01912"
     x="551.80688"
     style="font-style:normal;font-weight:normal;font-size:40px;line-canvasHeight:32.34999847;font-family:sans-serif;letter-spacing:0px;word-spacing:0px;fill:#000000;fill-opacity:1;stroke:none"
     xml:space="preserve"
     clip-path="url(#clipPath3144)"><tspan
       y="758.40973"
       x="551.80688"
       id="tspan4528" /></text>
  <text
     id="text4534"
     y="99.233345"
     x="576.80786"
     style="font-style:normal;font-weight:normal;font-size:85.33333333px;line-canvasHeight:1.25;font-family:sans-serif;letter-spacing:0px;word-spacing:0px;fill:#000000;fill-opacity:1;stroke:none;"
     xml:space="preserve"
     clip-path="url(#clipPath3140)"><tspan
       y="134.62396"
       x="576.80786"
       id="tspan4532" /></text>
  <circle
     r="1.5"
     cy="135.15488"
     cx="-674.01672"
     style="fill:#000000;stroke:none"
     id="path4575"
     clip-path="url(#clipPath3136)" />
  <text
     id="text4603"
     y="86.154922"
     x="366.61679"
     style="font-style:normal;font-weight:normal;font-size:53.33333333px;line-canvasHeight:1.25;font-family:sans-serif;letter-spacing:0px;word-spacing:0px;fill:#000000;fill-opacity:1;stroke:none;"
     xml:space="preserve"
     clip-path="url(#clipPath3132)"><tspan
       y="121.54555"
       x="366.61679"
       id="tspan4601" /></text>
  <text
     id="text4607"
     y="656.24402"
     x="375.7822"
     style="font-style:normal;font-weight:normal;font-size:40px;line-canvasHeight:1.25;font-family:sans-serif;letter-spacing:0px;word-spacing:0px;fill:#000000;fill-opacity:1;stroke:none"
     xml:space="preserve"
     clip-path="url(#clipPath3128)"><tspan
       y="691.63464"
       x="375.7822"
       id="tspan4605" /></text>
  <text
     id="text4611"
     y="59.575207"
     x="411.52734"
     style="font-style:normal;font-weight:normal;font-size:96px;line-canvasHeight:1.25;font-family:sans-serif;letter-spacing:0px;word-spacing:0px;fill:#000000;fill-opacity:1;stroke:none;"
     xml:space="preserve"
     clip-path="url(#clipPath3124)"><tspan
       y="94.965836"
       x="411.52734"
       id="tspan4609" /></text>
  <text
     id="text4615"
     y="43.07745"
     x="431.69125"
     style="font-style:normal;font-weight:normal;font-size:40px;line-canvasHeight:1.25;font-family:sans-serif;letter-spacing:0px;word-spacing:0px;fill:#000000;fill-opacity:1;stroke:none"
     xml:space="preserve"
     clip-path="url(#clipPath3120)"><tspan
       y="78.468079"
       x="431.69125"
       id="tspan4613" /></text>
  <flowRoot
     style="fill:black;fill-opacity:1;stroke:none;font-family:sans-serif;font-style:normal;font-weight:normal;font-size:85.33333333px;line-canvasHeight:1.25;letter-spacing:0px;word-spacing:0px;"
     id="flowRoot4617"
     xml:space="preserve"
     clip-path="url(#clipPath3116)"><flowRegion
       style="font-size:85.33333333px;"
       id="flowRegion4619"><rect
         style="font-size:85.33333333px;"
         y="85.23838"
         x="189.72418"
         height="68.740646"
         width="702.07111"
         id="rect4621" /></flowRegion><flowPara
       id="flowPara4623" /></flowRoot>  <flowRoot
     style="font-style:normal;font-weight:normal;font-size:40px;line-canvasHeight:1.25;font-family:sans-serif;letter-spacing:0px;word-spacing:0px;fill:#000000;fill-opacity:1;stroke:none"
     id="flowRoot4629"
     xml:space="preserve"
     clip-path="url(#clipPath3112)"><flowRegion
       id="flowRegion4631"><rect
         y="562.89624"
         x="755.67645"
         height="150.35757"
         width="387.55963"
         id="rect4633" /></flowRegion><flowPara
       id="flowPara4635" /></flowRoot>  <text
     id="text4639"
     y="617.33606"
     x="756.97266"
     style="font-style:normal;font-weight:normal;font-size:40px;line-canvasHeight:1.25;font-family:sans-serif;letter-spacing:0px;word-spacing:0px;fill:#000000;fill-opacity:1;stroke:none"
     xml:space="preserve"
     clip-path="url(#clipPath3108)"><tspan
       y="652.72668"
       x="756.97266"
       id="tspan4637" /></text>
  <flowRoot
     xml:space="preserve"
     id="flowRoot4680"
     style="fill:black;fill-opacity:1;stroke:none;font-family:sans-serif;font-style:normal;font-weight:normal;font-size:40px;line-canvasHeight:1.25;letter-spacing:0px;word-spacing:0px"
     clip-path="url(#clipPath3104)"><flowRegion
       id="flowRegion4682"><rect
         id="rect4684"
         width="429.8194"
         height="72.520966"
         x="261.78299"
         y="478.46149" /></flowRegion><flowPara
       id="flowPara4686" /></flowRoot>  <flowRoot
     xml:space="preserve"
     id="flowRoot4711"
     style="fill:black;fill-opacity:1;stroke:none;font-family:sans-serif;font-style:normal;font-weight:normal;font-size:40px;line-canvasHeight:1.25;letter-spacing:0px;word-spacing:0px"
     clip-path="url(#clipPath3100)"><flowRegion
       id="flowRegion4713"><rect
         id="rect4715"
         width="592.54938"
         height="42.451298"
         x="327.22876"
         y="487.30551" /></flowRegion><flowPara
       id="flowPara4717" /></flowRoot>  <g
     transform="matrix(0.84738916,0,0,1.1443891,-1410.9787,-53.033475)"
     id="g9536"
     style="fill:#0100ff;fill-opacity:0;stroke:#ffffff;stroke-width:1.01548076;stroke-opacity:1"
     clip-path="url(#clipPath3096)">
    <g
       aria-label="TONE"
       transform="matrix(0.90844484,0,0,0.90844484,274.00434,68.199691)"
       clip-path="url(#clipPath909-3)"
       style="font-style:normal;font-weight:normal;font-size:40px;font-family:sans-serif;letter-spacing:0px;word-spacing:0px;fill:url(#linearGradient3821);fill-opacity:1;stroke:#ffffff;stroke-width:1.11782336;stroke-opacity:1"
       id="text4627">
      <path
         d="m 317.69982,112.52653 -3.06667,18 h -24.93333 l -13.33334,75.6 h -22.8 l 13.33334,-75.6 h -24.8 l 3.2,-18 z"
         style="font-style:italic;font-variant:normal;font-weight:bold;font-stretch:normal;font-size:133.33332825px;font-family:Poppins;-inkscape-font-specification:'Poppins Bold Italic';fill:url(#linearGradient3821);fill-opacity:1;stroke:#ffffff;stroke-width:1.11782336;stroke-opacity:1"
         id="path9639"
         inkscape:connector-curvature="0" />
      <path
         d="m 357.16643,207.05986 q -11.86667,0 -20.93334,-4.93333 -8.93333,-4.93334 -13.86666,-13.86667 -4.93334,-8.93333 -4.93334,-20.53333 0,-16.4 7.06667,-29.2 7.06667,-12.93333 19.6,-20.13333 12.66667,-7.2 28.66667,-7.2 11.99999,0 21.06666,4.93333 9.06667,4.8 14,13.73333 4.93333,8.8 4.93333,20.26667 0,16.4 -7.06666,29.46666 -7.06667,12.93334 -19.73334,20.26667 -12.66666,7.2 -28.79999,7.2 z m 3.46666,-21.06667 q 8.8,0 15.46667,-4.53333 6.66666,-4.53333 10.26666,-12.13333 3.73334,-7.73334 3.73334,-16.66667 0,-9.6 -5.33334,-15.06666 -5.33333,-5.46667 -14.93333,-5.46667 -8.8,0 -15.6,4.53333 -6.66666,4.53334 -10.4,12.13333 -3.6,7.46667 -3.6,16.53334 0,9.6 5.33334,15.2 5.33333,5.46666 15.06666,5.46666 z"
         style="font-style:italic;font-variant:normal;font-weight:bold;font-stretch:normal;font-size:133.33332825px;font-family:Poppins;-inkscape-font-specification:'Poppins Bold Italic';fill:url(#linearGradient3821);fill-opacity:1;stroke:#ffffff;stroke-width:1.11782336;stroke-opacity:1"
         id="path9641"
         inkscape:connector-curvature="0" />
      <path
         d="m 501.16634,206.12653 h -22.8 L 450.49967,148.39319 440.233,206.12653 h -22.79999 l 16.53333,-93.6 h 22.8 l 27.86666,58 10.26667,-58 h 22.8 z"
         style="font-style:italic;font-variant:normal;font-weight:bold;font-stretch:normal;font-size:133.33332825px;font-family:Poppins;-inkscape-font-specification:'Poppins Bold Italic';fill:url(#linearGradient4672);fill-opacity:1;stroke:#ffffff;stroke-width:1.11782336;stroke-opacity:1"
         id="path9643"
         inkscape:connector-curvature="0" />
      <path
         d="m 553.83285,130.52653 -3.33334,19.46666 h 30.53334 l -3.06667,17.2 h -30.53333 l -3.73334,20.93334 h 34.53334 l -3.2,18 h -57.33333 l 16.53333,-93.6 h 57.33333 l -3.2,18 z"
         style="font-style:italic;font-variant:normal;font-weight:bold;font-stretch:normal;font-size:133.33332825px;font-family:Poppins;-inkscape-font-specification:'Poppins Bold Italic';fill:url(#linearGradient3821);fill-opacity:1;stroke:#ffffff;stroke-width:1.11782336;stroke-opacity:1"
         id="path9645"
         inkscape:connector-curvature="0" />
    </g>
    <path
       transform="matrix(1.0445958,0,0,1.0445958,-238.54576,3.1567663)"
       clip-path="url(#clipPath4697-5)"
       inkscape:connector-curvature="0"
       d="m -463.76,302.91394 c 10.2308,-16.69944 20.4614,-33.39892 32.1244,-33.39892 m 32.0948,33.39949 c -10.2307,-16.69944 -20.4613,-33.39892 -32.1243,-33.39892 m 32.1183,33.39084 c 10.2306,16.69947 20.4613,33.39895 32.1243,33.39895 m 32.0948,-33.39952 c -10.2307,16.69947 -20.4614,33.39895 -32.1243,33.39895 m 32.1222,-33.39608 c 10.2307,-16.69944 20.4614,-33.39892 32.1243,-33.39892 m 32.0948,33.39949 c -10.2307,-16.69944 -20.4613,-33.39892 -32.1243,-33.39892 m 32.123,33.39642 c 10.2307,16.69947 20.4613,33.39894 32.1243,33.39894 m 32.0948,-33.39951 c -10.2306,16.69947 -20.4613,33.39895 -32.1243,33.39895 m 32.1223,-33.39608 c 10.2307,-16.69944 20.4613,-33.39892 32.1243,-33.39892 m 32.0948,33.39948 c -10.2307,-16.69943 -20.4614,-33.39891 -32.1243,-33.39891 m 32.1182,33.39083 c 10.23064,16.69948 20.46134,33.39895 32.12429,33.39895 m 32.094812,-33.39952 c -10.23069,16.69948 -20.46131,33.39895 -32.124312,33.39895 m 32.122282,-33.39607 c 10.23067,-16.69944 20.46139,-33.39892 32.1243,-33.39892 m 32.09482,33.39949 c -10.23065,-16.69944 -20.46137,-33.39892 -32.12428,-33.39892 m 32.12063,33.4061 c 10.23065,16.69947 -46.32947,43.39743 32.12426,33.39894 m 32.09481,-33.39951 c -10.23065,16.69947 -20.46134,33.39895 -32.12431,33.39895 m 32.1222,-33.39608 c 10.23073,-16.69944 20.46136,-33.39892 32.12431,-33.39892 m 32.094858,33.39949 C 103.95608,286.21507 93.725412,269.51559 82.062442,269.51559 m 32.118368,33.39084 c 10.23067,16.69947 20.46136,33.39895 32.12431,33.39895 m 32.09482,-33.39952 c -10.23065,16.69947 -20.46134,33.39895 -32.12434,33.39895 m 32.12222,-33.39608 c 10.23067,-16.69944 20.46135,-33.39892 32.12436,-33.39892 m 32.09478,33.39949 c -10.23074,-16.69944 -20.46134,-33.39892 -32.12428,-33.39892 m 32.12296,33.39642 c 10.23061,16.69947 20.46135,33.39894 32.12429,33.39894 m 32.09485,-33.39951 c -10.23074,16.69947 -20.46141,33.39895 -32.12435,33.39895 m 32.12231,-33.39608 c 10.23067,-16.69944 20.46134,-33.39892 32.12435,-33.39892 m 32.09478,33.39948 C 360.8212,286.21023 350.59052,269.51075 338.92758,269.51075 m 32.11823,33.39083 c 10.23061,16.69948 20.46135,33.39895 32.12429,33.39895 m 32.09484,-33.39952 c -10.23067,16.69948 -20.46134,33.39895 -32.12435,33.39895 m 32.12231,-33.39607 c 10.23074,-16.69944 20.46135,-33.39892 32.12435,-33.39892 m 32.09485,33.39949 c -10.23074,-16.69944 -20.46141,-33.39892 -32.12435,-33.39892 m 32.14029,33.4061 c 10.23067,16.69947 20.46134,33.39894 32.12435,33.39894 m 32.09478,-33.39951 c -10.23067,16.69947 -20.46134,33.39895 -32.12435,33.39895 m 32.12224,-33.39608 c 10.23068,-16.69944 20.46142,-33.39892 32.12436,-33.39892 m 32.09484,33.39949 c -10.23073,-16.69944 -20.46141,-33.39892 -32.12441,-33.39892 m 32.11836,33.39084 c 10.23073,16.69947 20.46141,33.39895 32.12441,33.39895 m 32.09479,-33.39952 c -10.23068,16.69947 -20.46135,33.39895 -32.12436,33.39895 m 32.12225,-33.39608 c 10.23067,-16.69944 20.46134,-33.39892 32.12428,-33.39892 m 32.09485,33.39949 c -10.23067,-16.69944 -20.46141,-33.39892 -32.12435,-33.39892 m 32.12303,33.39642 c 10.23068,16.69947 20.46135,33.39894 32.12429,33.39894 m 32.09485,-33.39951 c -10.23074,16.69947 -20.46141,33.39895 -32.12429,33.39895 m 32.12225,-33.39608 c 10.23067,-16.69944 20.46134,-33.39892 32.12435,-33.39892 m 32.09485,33.39948 C 874.56867,286.21023 864.338,269.51075 852.67506,269.51075 m 32.11822,33.39083 c 10.23068,16.69948 20.46128,33.39895 32.12425,33.39895 m 32.09485,-33.39952 c -10.23061,16.69948 -20.46128,33.39895 -32.12429,33.39895 m 32.12225,-33.39607 c 10.23073,-16.69944 20.46147,-33.39892 32.12434,-33.39892 m 32.09482,33.39949 c -10.2307,-16.69944 -20.46138,-33.39892 -32.12432,-33.39892 m 32.12082,33.4061 c 10.2305,16.69947 20.4613,33.39894 32.1242,33.39894 m 32.0949,-33.39951 c -10.2307,16.69947 -20.4614,33.39895 -32.1243,33.39895 m 32.1221,-33.39608 c 10.2306,-16.69944 20.4615,-33.39892 32.1245,-33.39892 m -1958.6386,33.4018 c 10.2307,-16.69945 20.4614,-33.39892 32.1243,-33.39892 m 32.0949,33.39948 c -10.2307,-16.69944 -20.4614,-33.39891 -32.1244,-33.39891 m 32.1183,33.39083 c 10.2307,16.69948 20.4614,33.39895 32.1243,33.39895 m 32.0949,-33.39952 c -10.2307,16.69948 -20.4614,33.39895 -32.1244,33.39895 m 32.1223,-33.39607 c 10.2306,-16.69945 20.4613,-33.39892 32.1242,-33.39892 m 32.0949,33.39949 c -10.2307,-16.69945 -20.4614,-33.39892 -32.1244,-33.39892 m 32.1231,33.39641 c 10.2306,16.69947 20.4613,33.39895 32.1243,33.39895 m 32.0948,-33.39952 c -10.2307,16.69948 -20.4614,33.39895 -32.1243,33.39895 m 32.1222,-33.39608 c 10.2307,-16.69944 20.4613,-33.39891 32.1244,-33.39891 m 32.0947,33.39948 c -10.2306,-16.69944 -20.4613,-33.39891 -32.1243,-33.39891 m 32.1182,33.39083 c 10.2307,16.69947 20.4614,33.39894 32.1243,33.39894 m 32.0948,-33.39951 c -10.2306,16.69947 -20.4613,33.39894 -32.1242,33.39894 m 32.1222,-33.39607 c 10.2307,-16.69944 20.4614,-33.39891 32.1243,-33.39891 m 32.0948,33.39948 c -10.2306,-16.69944 -20.4614,-33.39891 -32.1242,-33.39891 m 32.1205,33.40609 c 10.2307,16.69947 -46.3294,43.39743 32.1243,33.39895 m 32.0948,-33.39952 c -10.2306,16.69948 -20.4613,33.39895 -32.1243,33.39895 m 32.1222,-33.39607 c 10.2308,-16.69945 20.4614,-33.39892 32.1243,-33.39892 m 32.0949,33.39948 c -10.2307,-16.69944 -20.4614,-33.39891 -32.1243,-33.39891 m 32.1183,33.39083 c 10.2307,16.69948 20.4614,33.39895 32.1244,33.39895 m 32.0948,-33.39952 c -10.2307,16.69948 -20.4614,33.39895 -32.1244,33.39895 m 32.1223,-33.39607 c 10.2306,-16.69945 20.4613,-33.39892 32.1243,-33.39892 m 32.0948,33.39949 c -10.2307,-16.69945 -20.4613,-33.39892 -32.1243,-33.39892 m 32.123,33.39641 c 10.23058,16.69947 20.46132,33.39895 32.12426,33.39895 m 32.094852,-33.39952 c -10.23074,16.69948 -20.46141,33.39895 -32.124352,33.39895 m 32.122312,-33.39608 c 10.23067,-16.69944 20.46135,-33.39891 32.12435,-33.39891 m 32.09478,33.39948 c -10.23067,-16.69944 -20.46134,-33.39891 -32.12428,-33.39891 m 32.11823,33.39083 c 10.2306,16.69947 20.46134,33.39894 32.12428,33.39894 m 32.09485,-33.39951 c -10.23067,16.69947 -20.46135,33.39894 -32.12435,33.39894 m 32.12231,-33.39607 c 10.23074,-16.69944 20.46134,-33.39891 32.12435,-33.39891 m 32.094848,33.39948 C 103.9401,286.20789 93.709432,269.50842 82.046492,269.50842 m 32.140278,33.40609 c 10.23068,16.69947 20.46135,33.39895 32.12435,33.39895 m 32.09479,-33.39952 c -10.23068,16.69948 -20.46135,33.39895 -32.12435,33.39895 m 32.12224,-33.39607 c 10.23067,-16.69945 20.46141,-33.39892 32.12435,-33.39892 m 32.09485,33.39948 c -10.23074,-16.69944 -20.46141,-33.39891 -32.12442,-33.39891 m 32.11836,33.39083 c 10.23074,16.69948 20.46141,33.39895 32.12442,33.39895 m 32.09478,-33.39952 c -10.23067,16.69948 -20.46134,33.39895 -32.12435,33.39895 m 32.12224,-33.39607 c 10.23068,-16.69945 20.46135,-33.39892 32.12429,-33.39892 m 32.09485,33.39949 c -10.23068,-16.69945 -20.46141,-33.39892 -32.12435,-33.39892 m 32.12303,33.39641 c 10.23067,16.69947 20.46134,33.39895 32.12428,33.39895 m 32.09485,-33.39952 c -10.23074,16.69948 -20.46141,33.39895 -32.12428,33.39895 m 32.12224,-33.39608 c 10.23067,-16.69944 20.46135,-33.39891 32.12435,-33.39891 m 32.09485,33.39948 C 489.2574,286.2131 479.02673,269.51363 467.36379,269.51363 m 32.11823,33.39083 c 10.23067,16.69947 20.46128,33.39894 32.12422,33.39894 m 32.09484,-33.39951 c -10.2306,16.69947 -20.46127,33.39894 -32.12428,33.39894 m 32.12224,-33.39607 c 10.23074,-16.69944 20.46148,-33.39891 32.12435,-33.39891 m 32.09487,33.39948 c -10.23074,-16.69944 -20.46141,-33.39891 -32.12437,-33.39891 m 32.12082,33.40609 c 10.23054,16.69947 20.46127,33.39895 32.12421,33.39895 m 32.09485,-33.39952 c -10.23067,16.69948 -20.46134,33.39895 -32.12421,33.39895 m 32.12211,-33.39607 c 10.2306,-16.69945 20.46147,-33.39892 32.12441,-33.39892"
       style="fill:url(#linearGradient3821);fill-opacity:1;fill-rule:nonzero;stroke:#ffffff;stroke-width:18.01644897;stroke-linecap:round;stroke-linejoin:miter;stroke-miterlimit:4;stroke-dasharray:none;stroke-opacity:1"
       id="path890" />
    <path
       clip-path="url(#clipPath4645-3)"
       inkscape:connector-curvature="0"
       d="m -463.76,302.91394 c 10.2308,-16.69944 20.4614,-33.39892 32.1244,-33.39892 m 32.0948,33.39949 c -10.2307,-16.69944 -20.4613,-33.39892 -32.1243,-33.39892 m 32.1183,33.39084 c 10.2306,16.69947 20.4613,33.39895 32.1243,33.39895 m 32.0948,-33.39952 c -10.2307,16.69947 -20.4614,33.39895 -32.1243,33.39895 m 32.1222,-33.39608 c 10.2307,-16.69944 20.4614,-33.39892 32.1243,-33.39892 m 32.0948,33.39949 c -10.2307,-16.69944 -20.4613,-33.39892 -32.1243,-33.39892 m 32.123,33.39642 c 10.2307,16.69947 20.4613,33.39894 32.1243,33.39894 m 32.0948,-33.39951 c -10.2306,16.69947 -20.4613,33.39895 -32.1243,33.39895 m 32.1223,-33.39608 c 10.2307,-16.69944 20.4613,-33.39892 32.1243,-33.39892 m 32.0948,33.39948 c -10.2307,-16.69943 -20.4614,-33.39891 -32.1243,-33.39891 m 32.1182,33.39083 c 10.23064,16.69948 20.46134,33.39895 32.12429,33.39895 m 32.094812,-33.39952 c -10.23069,16.69948 -20.46131,33.39895 -32.124312,33.39895 m 32.122282,-33.39607 c 10.23067,-16.69944 20.46139,-33.39892 32.1243,-33.39892 m 32.09482,33.39949 c -10.23065,-16.69944 -20.46137,-33.39892 -32.12428,-33.39892 m 32.12063,33.4061 c 10.23065,16.69947 -46.32947,43.39743 32.12426,33.39894 m 32.09481,-33.39951 c -10.23065,16.69947 -20.46134,33.39895 -32.12431,33.39895 m 32.1222,-33.39608 c 10.23073,-16.69944 20.46136,-33.39892 32.12431,-33.39892 m 32.094858,33.39949 C 103.95608,286.21507 93.725412,269.51559 82.062442,269.51559 m 32.118368,33.39084 c 10.23067,16.69947 20.46136,33.39895 32.12431,33.39895 m 32.09482,-33.39952 c -10.23065,16.69947 -20.46134,33.39895 -32.12434,33.39895 m 32.12222,-33.39608 c 10.23067,-16.69944 20.46135,-33.39892 32.12436,-33.39892 m 32.09478,33.39949 c -10.23074,-16.69944 -20.46134,-33.39892 -32.12428,-33.39892 m 32.12296,33.39642 c 10.23061,16.69947 20.46135,33.39894 32.12429,33.39894 m 32.09485,-33.39951 c -10.23074,16.69947 -20.46141,33.39895 -32.12435,33.39895 m 32.12231,-33.39608 c 10.23067,-16.69944 20.46134,-33.39892 32.12435,-33.39892 m 32.09478,33.39948 C 360.8212,286.21023 350.59052,269.51075 338.92758,269.51075 m 32.11823,33.39083 c 10.23061,16.69948 20.46135,33.39895 32.12429,33.39895 m 32.09484,-33.39952 c -10.23067,16.69948 -20.46134,33.39895 -32.12435,33.39895 m 32.12231,-33.39607 c 10.23074,-16.69944 20.46135,-33.39892 32.12435,-33.39892 m 32.09485,33.39949 c -10.23074,-16.69944 -20.46141,-33.39892 -32.12435,-33.39892 m 32.14029,33.4061 c 10.23067,16.69947 20.46134,33.39894 32.12435,33.39894 m 32.09478,-33.39951 c -10.23067,16.69947 -20.46134,33.39895 -32.12435,33.39895 m 32.12224,-33.39608 c 10.23068,-16.69944 20.46142,-33.39892 32.12436,-33.39892 m 32.09484,33.39949 c -10.23073,-16.69944 -20.46141,-33.39892 -32.12441,-33.39892 m 32.11836,33.39084 c 10.23073,16.69947 20.46141,33.39895 32.12441,33.39895 m 32.09479,-33.39952 c -10.23068,16.69947 -20.46135,33.39895 -32.12436,33.39895 m 32.12225,-33.39608 c 10.23067,-16.69944 20.46134,-33.39892 32.12428,-33.39892 m 32.09485,33.39949 c -10.23067,-16.69944 -20.46141,-33.39892 -32.12435,-33.39892 m 32.12303,33.39642 c 10.23068,16.69947 20.46135,33.39894 32.12429,33.39894 m 32.09485,-33.39951 c -10.23074,16.69947 -20.46141,33.39895 -32.12429,33.39895 m 32.12225,-33.39608 c 10.23067,-16.69944 20.46134,-33.39892 32.12435,-33.39892 m 32.09485,33.39948 C 874.56867,286.21023 864.338,269.51075 852.67506,269.51075 m 32.11822,33.39083 c 10.23068,16.69948 20.46128,33.39895 32.12425,33.39895 m 32.09485,-33.39952 c -10.23061,16.69948 -20.46128,33.39895 -32.12429,33.39895 m 32.12225,-33.39607 c 10.23073,-16.69944 20.46147,-33.39892 32.12434,-33.39892 m 32.09482,33.39949 c -10.2307,-16.69944 -20.46138,-33.39892 -32.12432,-33.39892 m 32.12082,33.4061 c 10.2305,16.69947 20.4613,33.39894 32.1242,33.39894 m 32.0949,-33.39951 c -10.2307,16.69947 -20.4614,33.39895 -32.1243,33.39895 m 32.1221,-33.39608 c 10.2306,-16.69944 20.4615,-33.39892 32.1245,-33.39892 m -1958.6386,33.4018 c 10.2307,-16.69945 20.4614,-33.39892 32.1243,-33.39892 m 32.0949,33.39948 c -10.2307,-16.69944 -20.4614,-33.39891 -32.1244,-33.39891 m 32.1183,33.39083 c 10.2307,16.69948 20.4614,33.39895 32.1243,33.39895 m 32.0949,-33.39952 c -10.2307,16.69948 -20.4614,33.39895 -32.1244,33.39895 m 32.1223,-33.39607 c 10.2306,-16.69945 20.4613,-33.39892 32.1242,-33.39892 m 32.0949,33.39949 c -10.2307,-16.69945 -20.4614,-33.39892 -32.1244,-33.39892 m 32.1231,33.39641 c 10.2306,16.69947 20.4613,33.39895 32.1243,33.39895 m 32.0948,-33.39952 c -10.2307,16.69948 -20.4614,33.39895 -32.1243,33.39895 m 32.1222,-33.39608 c 10.2307,-16.69944 20.4613,-33.39891 32.1244,-33.39891 m 32.0947,33.39948 c -10.2306,-16.69944 -20.4613,-33.39891 -32.1243,-33.39891 m 32.1182,33.39083 c 10.2307,16.69947 20.4614,33.39894 32.1243,33.39894 m 32.0948,-33.39951 c -10.2306,16.69947 -20.4613,33.39894 -32.1242,33.39894 m 32.1222,-33.39607 c 10.2307,-16.69944 20.4614,-33.39891 32.1243,-33.39891 m 32.0948,33.39948 c -10.2306,-16.69944 -20.4614,-33.39891 -32.1242,-33.39891 m 32.1205,33.40609 c 10.2307,16.69947 -46.3294,43.39743 32.1243,33.39895 m 32.0948,-33.39952 c -10.2306,16.69948 -20.4613,33.39895 -32.1243,33.39895 m 32.1222,-33.39607 c 10.2308,-16.69945 20.4614,-33.39892 32.1243,-33.39892 m 32.0949,33.39948 c -10.2307,-16.69944 -20.4614,-33.39891 -32.1243,-33.39891 m 32.1183,33.39083 c 10.2307,16.69948 20.4614,33.39895 32.1244,33.39895 m 32.0948,-33.39952 c -10.2307,16.69948 -20.4614,33.39895 -32.1244,33.39895 m 32.1223,-33.39607 c 10.2306,-16.69945 20.4613,-33.39892 32.1243,-33.39892 m 32.0948,33.39949 c -10.2307,-16.69945 -20.4613,-33.39892 -32.1243,-33.39892 m 32.123,33.39641 c 10.23058,16.69947 20.46132,33.39895 32.12426,33.39895 m 32.094852,-33.39952 c -10.23074,16.69948 -20.46141,33.39895 -32.124352,33.39895 m 32.122312,-33.39608 c 10.23067,-16.69944 20.46135,-33.39891 32.12435,-33.39891 m 32.09478,33.39948 c -10.23067,-16.69944 -20.46134,-33.39891 -32.12428,-33.39891 m 32.11823,33.39083 c 10.2306,16.69947 20.46134,33.39894 32.12428,33.39894 m 32.09485,-33.39951 c -10.23067,16.69947 -20.46135,33.39894 -32.12435,33.39894 m 32.12231,-33.39607 c 10.23074,-16.69944 20.46134,-33.39891 32.12435,-33.39891 m 32.094848,33.39948 C 103.9401,286.20789 93.709432,269.50842 82.046492,269.50842 m 32.140278,33.40609 c 10.23068,16.69947 20.46135,33.39895 32.12435,33.39895 m 32.09479,-33.39952 c -10.23068,16.69948 -20.46135,33.39895 -32.12435,33.39895 m 32.12224,-33.39607 c 10.23067,-16.69945 20.46141,-33.39892 32.12435,-33.39892 m 32.09485,33.39948 c -10.23074,-16.69944 -20.46141,-33.39891 -32.12442,-33.39891 m 32.11836,33.39083 c 10.23074,16.69948 20.46141,33.39895 32.12442,33.39895 m 32.09478,-33.39952 c -10.23067,16.69948 -20.46134,33.39895 -32.12435,33.39895 m 32.12224,-33.39607 c 10.23068,-16.69945 20.46135,-33.39892 32.12429,-33.39892 m 32.09485,33.39949 c -10.23068,-16.69945 -20.46141,-33.39892 -32.12435,-33.39892 m 32.12303,33.39641 c 10.23067,16.69947 20.46134,33.39895 32.12428,33.39895 m 32.09485,-33.39952 c -10.23074,16.69948 -20.46141,33.39895 -32.12428,33.39895 m 32.12224,-33.39608 c 10.23067,-16.69944 20.46135,-33.39891 32.12435,-33.39891 m 32.09485,33.39948 C 489.2574,286.2131 479.02673,269.51363 467.36379,269.51363 m 32.11823,33.39083 c 10.23067,16.69947 20.46128,33.39894 32.12422,33.39894 m 32.09484,-33.39951 c -10.2306,16.69947 -20.46127,33.39894 -32.12428,33.39894 m 32.12224,-33.39607 c 10.23074,-16.69944 20.46148,-33.39891 32.12435,-33.39891 m 32.09487,33.39948 c -10.23074,-16.69944 -20.46141,-33.39891 -32.12437,-33.39891 m 32.12082,33.40609 c 10.23054,16.69947 20.46127,33.39895 32.12421,33.39895 m 32.09485,-33.39952 c -10.23067,16.69948 -20.46134,33.39895 -32.12421,33.39895 m 32.12211,-33.39607 c 10.2306,-16.69945 20.46147,-33.39892 32.12441,-33.39892"
       style="fill:url(#linearGradient3821);fill-opacity:1;fill-rule:nonzero;stroke:#ffffff;stroke-width:18.01644897;stroke-linecap:round;stroke-linejoin:miter;stroke-miterlimit:4;stroke-dasharray:none;stroke-opacity:1"
       id="path4668"
       transform="matrix(-1.0445958,0,0,1.0445958,1542.9123,3.1678391)" />
    <g
       aria-label="GARDEN"
       transform="matrix(0.9598109,0,0,0.9598109,21.840808,15.704649)"
       style="font-style:normal;font-weight:normal;font-size:40px;font-family:sans-serif;letter-spacing:0px;word-spacing:0px;fill:url(#linearGradient3821);fill-opacity:1;stroke:#ffffff;stroke-width:1.0580008;stroke-opacity:1"
       id="flowRoot4672">
      <path
         d="m 427.54414,525.40385 q 1.92,-11.09333 8.21333,-19.73333 6.4,-8.74667 15.89334,-13.54667 9.49333,-4.90666 20.58666,-4.90666 13.44,0 21.54667,6.50666 8.21333,6.50667 8.96,18.02667 h -20.05333 q -1.38667,-3.73333 -4.90667,-5.65333 -3.41333,-2.02667 -8.42667,-2.02667 -8.85333,0 -15.25333,5.86667 -6.29333,5.76 -8,15.46666 -0.53333,3.2 -0.53333,5.54667 0,7.89333 4.58666,12.16 4.58667,4.26667 13.01334,4.26667 6.82666,0 12.05333,-3.41334 5.22667,-3.52 8.42667,-9.92 h -23.04 l 2.24,-13.33333 h 39.68 l -2.98667,16.96 q -3.2,6.82667 -9.17333,12.69333 -5.86667,5.86667 -13.97334,9.49334 -8.10666,3.62666 -17.49333,3.62666 -9.70667,0 -17.06667,-3.73333 -7.25333,-3.84 -11.2,-10.66667 -3.84,-6.82666 -3.84,-15.89333 0,-3.09333 0.74667,-7.78667 z"
         style="font-style:italic;font-variant:normal;font-weight:bold;font-stretch:normal;font-size:106.66666412px;font-family:Poppins;-inkscape-font-specification:'Poppins Bold Italic';fill:url(#linearGradient3821);fill-opacity:1;stroke:#ffffff;stroke-width:1.0580008;stroke-opacity:1"
         id="path9648"
         inkscape:connector-curvature="0" />
      <path
         d="m 554.15738,549.72385 h -27.94667 l -6.82666,13.22667 h -19.09334 l 40.32,-74.88 h 21.12 l 13.86667,74.88 h -19.30667 z m -2.13333,-13.86666 -4.37334,-27.73334 -14.29333,27.73334 z"
         style="font-style:italic;font-variant:normal;font-weight:bold;font-stretch:normal;font-size:106.66666412px;font-family:Poppins;-inkscape-font-specification:'Poppins Bold Italic';fill:url(#linearGradient3821);fill-opacity:1;stroke:#ffffff;stroke-width:1.0580008;stroke-opacity:1"
         id="path9650"
         inkscape:connector-curvature="0" />
      <path
         d="m 627.65066,488.07052 q 11.62667,0 17.70667,5.33333 6.08,5.22667 6.08,13.65334 0,2.45333 -0.42667,4.58666 -1.28,7.46667 -6.50667,13.33334 -5.22666,5.86666 -13.97333,8.32 l 12.05333,29.65333 h -20.58666 l -10.56,-28.26667 H 607.064 l -5.01334,28.26667 h -18.24 l 13.22667,-74.88 z m 4.69333,24.32 q 0.21334,-1.70667 0.21334,-2.24 0,-3.41333 -2.24,-5.22667 -2.13334,-1.92 -6.4,-1.92 h -11.30667 l -3.30666,18.77334 h 11.30666 q 5.01333,0 7.89333,-2.45334 2.98667,-2.45333 3.84,-6.93333 z"
         style="font-style:italic;font-variant:normal;font-weight:bold;font-stretch:normal;font-size:106.66666412px;font-family:Poppins;-inkscape-font-specification:'Poppins Bold Italic';fill:url(#linearGradient3821);fill-opacity:1;stroke:#ffffff;stroke-width:1.0580008;stroke-opacity:1"
         id="path9652"
         inkscape:connector-curvature="0" />
      <path
         d="m 694.63717,488.07052 q 10.34667,0 17.81333,3.73333 7.57334,3.62667 11.52,10.34667 4.05334,6.61333 4.05334,15.57333 0,3.09334 -0.74667,7.78667 -1.92,10.98667 -8.32,19.52 -6.29333,8.53333 -16.10667,13.22667 -9.70666,4.69333 -21.44,4.69333 h -28.05333 l 13.22667,-74.88 z m -11.62667,59.30667 q 10.34667,0 17.17334,-5.76 6.82666,-5.76 8.53333,-16.10667 0.53333,-3.2 0.53333,-5.33333 0,-7.89334 -4.8,-12.16 -4.8,-4.37334 -13.65333,-4.37334 h -8.74667 l -7.68,43.73334 z"
         style="font-style:italic;font-variant:normal;font-weight:bold;font-stretch:normal;font-size:106.66666412px;font-family:Poppins;-inkscape-font-specification:'Poppins Bold Italic';fill:url(#linearGradient3821);fill-opacity:1;stroke:#ffffff;stroke-width:1.0580008;stroke-opacity:1"
         id="path9654"
         inkscape:connector-curvature="0" />
      <path
         d="m 759.81041,502.47052 -2.66667,15.57333 h 24.42667 l -2.45334,13.76 h -24.42666 l -2.98667,16.74667 h 27.62667 l -2.56,14.4 h -45.86667 l 13.22667,-74.88 h 45.86666 l -2.56,14.4 z"
         style="font-style:italic;font-variant:normal;font-weight:bold;font-stretch:normal;font-size:106.66666412px;font-family:Poppins;-inkscape-font-specification:'Poppins Bold Italic';fill:url(#linearGradient3821);fill-opacity:1;stroke:#ffffff;stroke-width:1.0580008;stroke-opacity:1"
         id="path9656"
         inkscape:connector-curvature="0" />
      <path
         d="m 855.59692,562.95052 h -18.24 l -22.29333,-46.18667 -8.21334,46.18667 h -18.24 l 13.22667,-74.88 h 18.24 l 22.29333,46.4 8.21334,-46.4 h 18.23999 z"
         style="font-style:italic;font-variant:normal;font-weight:bold;font-stretch:normal;font-size:106.66666412px;font-family:Poppins;-inkscape-font-specification:'Poppins Bold Italic';fill:url(#linearGradient3821);fill-opacity:1;stroke:#ffffff;stroke-width:1.0580008;stroke-opacity:1"
         id="path9658"
         inkscape:connector-curvature="0" />
    </g>
    <path
       id="path4707"
       style="fill:url(#linearGradient3821);fill-opacity:1;fill-rule:nonzero;stroke:#ffffff;stroke-width:18.01644897;stroke-linecap:round;stroke-linejoin:miter;stroke-miterlimit:4;stroke-dasharray:none;stroke-opacity:1"
       d="m -463.76,302.91394 c 10.2308,-16.69944 20.4614,-33.39892 32.1244,-33.39892 m 32.0948,33.39949 c -10.2307,-16.69944 -20.4613,-33.39892 -32.1243,-33.39892 m 32.1183,33.39084 c 10.2306,16.69947 20.4613,33.39895 32.1243,33.39895 m 32.0948,-33.39952 c -10.2307,16.69947 -20.4614,33.39895 -32.1243,33.39895 m 32.1222,-33.39608 c 10.2307,-16.69944 20.4614,-33.39892 32.1243,-33.39892 m 32.0948,33.39949 c -10.2307,-16.69944 -20.4613,-33.39892 -32.1243,-33.39892 m 32.123,33.39642 c 10.2307,16.69947 20.4613,33.39894 32.1243,33.39894 m 32.0948,-33.39951 c -10.2306,16.69947 -20.4613,33.39895 -32.1243,33.39895 m 32.1223,-33.39608 c 10.2307,-16.69944 20.4613,-33.39892 32.1243,-33.39892 m 32.0948,33.39948 c -10.2307,-16.69943 -20.4614,-33.39891 -32.1243,-33.39891 m 32.1182,33.39083 c 10.23064,16.69948 20.46134,33.39895 32.12429,33.39895 m 32.094812,-33.39952 c -10.23069,16.69948 -20.46131,33.39895 -32.124312,33.39895 m 32.122282,-33.39607 c 10.23067,-16.69944 20.46139,-33.39892 32.1243,-33.39892 m 32.09482,33.39949 c -10.23065,-16.69944 -20.46137,-33.39892 -32.12428,-33.39892 m 32.12063,33.4061 c 10.23065,16.69947 -46.32947,43.39743 32.12426,33.39894 m 32.09481,-33.39951 c -10.23065,16.69947 -20.46134,33.39895 -32.12431,33.39895 m 32.1222,-33.39608 c 10.23073,-16.69944 20.46136,-33.39892 32.12431,-33.39892 m 32.094858,33.39949 C 103.95608,286.21507 93.725412,269.51559 82.062442,269.51559 m 32.118368,33.39084 c 10.23067,16.69947 20.46136,33.39895 32.12431,33.39895 m 32.09482,-33.39952 c -10.23065,16.69947 -20.46134,33.39895 -32.12434,33.39895 m 32.12222,-33.39608 c 10.23067,-16.69944 20.46135,-33.39892 32.12436,-33.39892 m 32.09478,33.39949 c -10.23074,-16.69944 -20.46134,-33.39892 -32.12428,-33.39892 m 32.12296,33.39642 c 10.23061,16.69947 20.46135,33.39894 32.12429,33.39894 m 32.09485,-33.39951 c -10.23074,16.69947 -20.46141,33.39895 -32.12435,33.39895 m 32.12231,-33.39608 c 10.23067,-16.69944 20.46134,-33.39892 32.12435,-33.39892 m 32.09478,33.39948 C 360.8212,286.21023 350.59052,269.51075 338.92758,269.51075 m 32.11823,33.39083 c 10.23061,16.69948 20.46135,33.39895 32.12429,33.39895 m 32.09484,-33.39952 c -10.23067,16.69948 -20.46134,33.39895 -32.12435,33.39895 m 32.12231,-33.39607 c 10.23074,-16.69944 20.46135,-33.39892 32.12435,-33.39892 m 32.09485,33.39949 c -10.23074,-16.69944 -20.46141,-33.39892 -32.12435,-33.39892 m 32.14029,33.4061 c 10.23067,16.69947 20.46134,33.39894 32.12435,33.39894 m 32.09478,-33.39951 c -10.23067,16.69947 -20.46134,33.39895 -32.12435,33.39895 m 32.12224,-33.39608 c 10.23068,-16.69944 20.46142,-33.39892 32.12436,-33.39892 m 32.09484,33.39949 c -10.23073,-16.69944 -20.46141,-33.39892 -32.12441,-33.39892 m 32.11836,33.39084 c 10.23073,16.69947 20.46141,33.39895 32.12441,33.39895 m 32.09479,-33.39952 c -10.23068,16.69947 -20.46135,33.39895 -32.12436,33.39895 m 32.12225,-33.39608 c 10.23067,-16.69944 20.46134,-33.39892 32.12428,-33.39892 m 32.09485,33.39949 c -10.23067,-16.69944 -20.46141,-33.39892 -32.12435,-33.39892 m 32.12303,33.39642 c 10.23068,16.69947 20.46135,33.39894 32.12429,33.39894 m 32.09485,-33.39951 c -10.23074,16.69947 -20.46141,33.39895 -32.12429,33.39895 m 32.12225,-33.39608 c 10.23067,-16.69944 20.46134,-33.39892 32.12435,-33.39892 m 32.09485,33.39948 C 874.56867,286.21023 864.338,269.51075 852.67506,269.51075 m 32.11822,33.39083 c 10.23068,16.69948 20.46128,33.39895 32.12425,33.39895 m 32.09485,-33.39952 c -10.23061,16.69948 -20.46128,33.39895 -32.12429,33.39895 m 32.12225,-33.39607 c 10.23073,-16.69944 20.46147,-33.39892 32.12434,-33.39892 m 32.09482,33.39949 c -10.2307,-16.69944 -20.46138,-33.39892 -32.12432,-33.39892 m 32.12082,33.4061 c 10.2305,16.69947 20.4613,33.39894 32.1242,33.39894 m 32.0949,-33.39951 c -10.2307,16.69947 -20.4614,33.39895 -32.1243,33.39895 m 32.1221,-33.39608 c 10.2306,-16.69944 20.4615,-33.39892 32.1245,-33.39892 m -1958.6386,33.4018 c 10.2307,-16.69945 20.4614,-33.39892 32.1243,-33.39892 m 32.0949,33.39948 c -10.2307,-16.69944 -20.4614,-33.39891 -32.1244,-33.39891 m 32.1183,33.39083 c 10.2307,16.69948 20.4614,33.39895 32.1243,33.39895 m 32.0949,-33.39952 c -10.2307,16.69948 -20.4614,33.39895 -32.1244,33.39895 m 32.1223,-33.39607 c 10.2306,-16.69945 20.4613,-33.39892 32.1242,-33.39892 m 32.0949,33.39949 c -10.2307,-16.69945 -20.4614,-33.39892 -32.1244,-33.39892 m 32.1231,33.39641 c 10.2306,16.69947 20.4613,33.39895 32.1243,33.39895 m 32.0948,-33.39952 c -10.2307,16.69948 -20.4614,33.39895 -32.1243,33.39895 m 32.1222,-33.39608 c 10.2307,-16.69944 20.4613,-33.39891 32.1244,-33.39891 m 32.0947,33.39948 c -10.2306,-16.69944 -20.4613,-33.39891 -32.1243,-33.39891 m 32.1182,33.39083 c 10.2307,16.69947 20.4614,33.39894 32.1243,33.39894 m 32.0948,-33.39951 c -10.2306,16.69947 -20.4613,33.39894 -32.1242,33.39894 m 32.1222,-33.39607 c 10.2307,-16.69944 20.4614,-33.39891 32.1243,-33.39891 m 32.0948,33.39948 c -10.2306,-16.69944 -20.4614,-33.39891 -32.1242,-33.39891 m 32.1205,33.40609 c 10.2307,16.69947 -46.3294,43.39743 32.1243,33.39895 m 32.0948,-33.39952 c -10.2306,16.69948 -20.4613,33.39895 -32.1243,33.39895 m 32.1222,-33.39607 c 10.2308,-16.69945 20.4614,-33.39892 32.1243,-33.39892 m 32.0949,33.39948 c -10.2307,-16.69944 -20.4614,-33.39891 -32.1243,-33.39891 m 32.1183,33.39083 c 10.2307,16.69948 20.4614,33.39895 32.1244,33.39895 m 32.0948,-33.39952 c -10.2307,16.69948 -20.4614,33.39895 -32.1244,33.39895 m 32.1223,-33.39607 c 10.2306,-16.69945 20.4613,-33.39892 32.1243,-33.39892 m 32.0948,33.39949 c -10.2307,-16.69945 -20.4613,-33.39892 -32.1243,-33.39892 m 32.123,33.39641 c 10.23058,16.69947 20.46132,33.39895 32.12426,33.39895 m 32.094852,-33.39952 c -10.23074,16.69948 -20.46141,33.39895 -32.124352,33.39895 m 32.122312,-33.39608 c 10.23067,-16.69944 20.46135,-33.39891 32.12435,-33.39891 m 32.09478,33.39948 c -10.23067,-16.69944 -20.46134,-33.39891 -32.12428,-33.39891 m 32.11823,33.39083 c 10.2306,16.69947 20.46134,33.39894 32.12428,33.39894 m 32.09485,-33.39951 c -10.23067,16.69947 -20.46135,33.39894 -32.12435,33.39894 m 32.12231,-33.39607 c 10.23074,-16.69944 20.46134,-33.39891 32.12435,-33.39891 m 32.094848,33.39948 C 103.9401,286.20789 93.709432,269.50842 82.046492,269.50842 m 32.140278,33.40609 c 10.23068,16.69947 20.46135,33.39895 32.12435,33.39895 m 32.09479,-33.39952 c -10.23068,16.69948 -20.46135,33.39895 -32.12435,33.39895 m 32.12224,-33.39607 c 10.23067,-16.69945 20.46141,-33.39892 32.12435,-33.39892 m 32.09485,33.39948 c -10.23074,-16.69944 -20.46141,-33.39891 -32.12442,-33.39891 m 32.11836,33.39083 c 10.23074,16.69948 20.46141,33.39895 32.12442,33.39895 m 32.09478,-33.39952 c -10.23067,16.69948 -20.46134,33.39895 -32.12435,33.39895 m 32.12224,-33.39607 c 10.23068,-16.69945 20.46135,-33.39892 32.12429,-33.39892 m 32.09485,33.39949 c -10.23068,-16.69945 -20.46141,-33.39892 -32.12435,-33.39892 m 32.12303,33.39641 c 10.23067,16.69947 20.46134,33.39895 32.12428,33.39895 m 32.09485,-33.39952 c -10.23074,16.69948 -20.46141,33.39895 -32.12428,33.39895 m 32.12224,-33.39608 c 10.23067,-16.69944 20.46135,-33.39891 32.12435,-33.39891 m 32.09485,33.39948 C 489.2574,286.2131 479.02673,269.51363 467.36379,269.51363 m 32.11823,33.39083 c 10.23067,16.69947 20.46128,33.39894 32.12422,33.39894 m 32.09484,-33.39951 c -10.2306,16.69947 -20.46127,33.39894 -32.12428,33.39894 m 32.12224,-33.39607 c 10.23074,-16.69944 20.46148,-33.39891 32.12435,-33.39891 m 32.09487,33.39948 c -10.23074,-16.69944 -20.46141,-33.39891 -32.12437,-33.39891 m 32.12082,33.40609 c 10.23054,16.69947 20.46127,33.39895 32.12421,33.39895 m 32.09485,-33.39952 c -10.23067,16.69948 -20.46134,33.39895 -32.12421,33.39895 m 32.12211,-33.39607 c 10.2306,-16.69945 20.46147,-33.39892 32.12441,-33.39892"
       inkscape:connector-curvature="0"
       clip-path="url(#clipPath4697-5)"
       transform="matrix(1.0445958,0,0,1.0445958,-242.47867,92.886044)" />
    <path
       transform="matrix(-1.0445958,0,0,1.0445958,1538.9794,92.897114)"
       id="path4709"
       style="fill:url(#linearGradient3821);fill-opacity:1;fill-rule:nonzero;stroke:#ffffff;stroke-width:18.01644897;stroke-linecap:round;stroke-linejoin:miter;stroke-miterlimit:4;stroke-dasharray:none;stroke-opacity:1"
       d="m -463.76,302.91394 c 10.2308,-16.69944 20.4614,-33.39892 32.1244,-33.39892 m 32.0948,33.39949 c -10.2307,-16.69944 -20.4613,-33.39892 -32.1243,-33.39892 m 32.1183,33.39084 c 10.2306,16.69947 20.4613,33.39895 32.1243,33.39895 m 32.0948,-33.39952 c -10.2307,16.69947 -20.4614,33.39895 -32.1243,33.39895 m 32.1222,-33.39608 c 10.2307,-16.69944 20.4614,-33.39892 32.1243,-33.39892 m 32.0948,33.39949 c -10.2307,-16.69944 -20.4613,-33.39892 -32.1243,-33.39892 m 32.123,33.39642 c 10.2307,16.69947 20.4613,33.39894 32.1243,33.39894 m 32.0948,-33.39951 c -10.2306,16.69947 -20.4613,33.39895 -32.1243,33.39895 m 32.1223,-33.39608 c 10.2307,-16.69944 20.4613,-33.39892 32.1243,-33.39892 m 32.0948,33.39948 c -10.2307,-16.69943 -20.4614,-33.39891 -32.1243,-33.39891 m 32.1182,33.39083 c 10.23064,16.69948 20.46134,33.39895 32.12429,33.39895 m 32.094812,-33.39952 c -10.23069,16.69948 -20.46131,33.39895 -32.124312,33.39895 m 32.122282,-33.39607 c 10.23067,-16.69944 20.46139,-33.39892 32.1243,-33.39892 m 32.09482,33.39949 c -10.23065,-16.69944 -20.46137,-33.39892 -32.12428,-33.39892 m 32.12063,33.4061 c 10.23065,16.69947 -46.32947,43.39743 32.12426,33.39894 m 32.09481,-33.39951 c -10.23065,16.69947 -20.46134,33.39895 -32.12431,33.39895 m 32.1222,-33.39608 c 10.23073,-16.69944 20.46136,-33.39892 32.12431,-33.39892 m 32.094858,33.39949 C 103.95608,286.21507 93.725412,269.51559 82.062442,269.51559 m 32.118368,33.39084 c 10.23067,16.69947 20.46136,33.39895 32.12431,33.39895 m 32.09482,-33.39952 c -10.23065,16.69947 -20.46134,33.39895 -32.12434,33.39895 m 32.12222,-33.39608 c 10.23067,-16.69944 20.46135,-33.39892 32.12436,-33.39892 m 32.09478,33.39949 c -10.23074,-16.69944 -20.46134,-33.39892 -32.12428,-33.39892 m 32.12296,33.39642 c 10.23061,16.69947 20.46135,33.39894 32.12429,33.39894 m 32.09485,-33.39951 c -10.23074,16.69947 -20.46141,33.39895 -32.12435,33.39895 m 32.12231,-33.39608 c 10.23067,-16.69944 20.46134,-33.39892 32.12435,-33.39892 m 32.09478,33.39948 C 360.8212,286.21023 350.59052,269.51075 338.92758,269.51075 m 32.11823,33.39083 c 10.23061,16.69948 20.46135,33.39895 32.12429,33.39895 m 32.09484,-33.39952 c -10.23067,16.69948 -20.46134,33.39895 -32.12435,33.39895 m 32.12231,-33.39607 c 10.23074,-16.69944 20.46135,-33.39892 32.12435,-33.39892 m 32.09485,33.39949 c -10.23074,-16.69944 -20.46141,-33.39892 -32.12435,-33.39892 m 32.14029,33.4061 c 10.23067,16.69947 20.46134,33.39894 32.12435,33.39894 m 32.09478,-33.39951 c -10.23067,16.69947 -20.46134,33.39895 -32.12435,33.39895 m 32.12224,-33.39608 c 10.23068,-16.69944 20.46142,-33.39892 32.12436,-33.39892 m 32.09484,33.39949 c -10.23073,-16.69944 -20.46141,-33.39892 -32.12441,-33.39892 m 32.11836,33.39084 c 10.23073,16.69947 20.46141,33.39895 32.12441,33.39895 m 32.09479,-33.39952 c -10.23068,16.69947 -20.46135,33.39895 -32.12436,33.39895 m 32.12225,-33.39608 c 10.23067,-16.69944 20.46134,-33.39892 32.12428,-33.39892 m 32.09485,33.39949 c -10.23067,-16.69944 -20.46141,-33.39892 -32.12435,-33.39892 m 32.12303,33.39642 c 10.23068,16.69947 20.46135,33.39894 32.12429,33.39894 m 32.09485,-33.39951 c -10.23074,16.69947 -20.46141,33.39895 -32.12429,33.39895 m 32.12225,-33.39608 c 10.23067,-16.69944 20.46134,-33.39892 32.12435,-33.39892 m 32.09485,33.39948 C 874.56867,286.21023 864.338,269.51075 852.67506,269.51075 m 32.11822,33.39083 c 10.23068,16.69948 20.46128,33.39895 32.12425,33.39895 m 32.09485,-33.39952 c -10.23061,16.69948 -20.46128,33.39895 -32.12429,33.39895 m 32.12225,-33.39607 c 10.23073,-16.69944 20.46147,-33.39892 32.12434,-33.39892 m 32.09482,33.39949 c -10.2307,-16.69944 -20.46138,-33.39892 -32.12432,-33.39892 m 32.12082,33.4061 c 10.2305,16.69947 20.4613,33.39894 32.1242,33.39894 m 32.0949,-33.39951 c -10.2307,16.69947 -20.4614,33.39895 -32.1243,33.39895 m 32.1221,-33.39608 c 10.2306,-16.69944 20.4615,-33.39892 32.1245,-33.39892 m -1958.6386,33.4018 c 10.2307,-16.69945 20.4614,-33.39892 32.1243,-33.39892 m 32.0949,33.39948 c -10.2307,-16.69944 -20.4614,-33.39891 -32.1244,-33.39891 m 32.1183,33.39083 c 10.2307,16.69948 20.4614,33.39895 32.1243,33.39895 m 32.0949,-33.39952 c -10.2307,16.69948 -20.4614,33.39895 -32.1244,33.39895 m 32.1223,-33.39607 c 10.2306,-16.69945 20.4613,-33.39892 32.1242,-33.39892 m 32.0949,33.39949 c -10.2307,-16.69945 -20.4614,-33.39892 -32.1244,-33.39892 m 32.1231,33.39641 c 10.2306,16.69947 20.4613,33.39895 32.1243,33.39895 m 32.0948,-33.39952 c -10.2307,16.69948 -20.4614,33.39895 -32.1243,33.39895 m 32.1222,-33.39608 c 10.2307,-16.69944 20.4613,-33.39891 32.1244,-33.39891 m 32.0947,33.39948 c -10.2306,-16.69944 -20.4613,-33.39891 -32.1243,-33.39891 m 32.1182,33.39083 c 10.2307,16.69947 20.4614,33.39894 32.1243,33.39894 m 32.0948,-33.39951 c -10.2306,16.69947 -20.4613,33.39894 -32.1242,33.39894 m 32.1222,-33.39607 c 10.2307,-16.69944 20.4614,-33.39891 32.1243,-33.39891 m 32.0948,33.39948 c -10.2306,-16.69944 -20.4614,-33.39891 -32.1242,-33.39891 m 32.1205,33.40609 c 10.2307,16.69947 -46.3294,43.39743 32.1243,33.39895 m 32.0948,-33.39952 c -10.2306,16.69948 -20.4613,33.39895 -32.1243,33.39895 m 32.1222,-33.39607 c 10.2308,-16.69945 20.4614,-33.39892 32.1243,-33.39892 m 32.0949,33.39948 c -10.2307,-16.69944 -20.4614,-33.39891 -32.1243,-33.39891 m 32.1183,33.39083 c 10.2307,16.69948 20.4614,33.39895 32.1244,33.39895 m 32.0948,-33.39952 c -10.2307,16.69948 -20.4614,33.39895 -32.1244,33.39895 m 32.1223,-33.39607 c 10.2306,-16.69945 20.4613,-33.39892 32.1243,-33.39892 m 32.0948,33.39949 c -10.2307,-16.69945 -20.4613,-33.39892 -32.1243,-33.39892 m 32.123,33.39641 c 10.23058,16.69947 20.46132,33.39895 32.12426,33.39895 m 32.094852,-33.39952 c -10.23074,16.69948 -20.46141,33.39895 -32.124352,33.39895 m 32.122312,-33.39608 c 10.23067,-16.69944 20.46135,-33.39891 32.12435,-33.39891 m 32.09478,33.39948 c -10.23067,-16.69944 -20.46134,-33.39891 -32.12428,-33.39891 m 32.11823,33.39083 c 10.2306,16.69947 20.46134,33.39894 32.12428,33.39894 m 32.09485,-33.39951 c -10.23067,16.69947 -20.46135,33.39894 -32.12435,33.39894 m 32.12231,-33.39607 c 10.23074,-16.69944 20.46134,-33.39891 32.12435,-33.39891 m 32.094848,33.39948 C 103.9401,286.20789 93.709432,269.50842 82.046492,269.50842 m 32.140278,33.40609 c 10.23068,16.69947 20.46135,33.39895 32.12435,33.39895 m 32.09479,-33.39952 c -10.23068,16.69948 -20.46135,33.39895 -32.12435,33.39895 m 32.12224,-33.39607 c 10.23067,-16.69945 20.46141,-33.39892 32.12435,-33.39892 m 32.09485,33.39948 c -10.23074,-16.69944 -20.46141,-33.39891 -32.12442,-33.39891 m 32.11836,33.39083 c 10.23074,16.69948 20.46141,33.39895 32.12442,33.39895 m 32.09478,-33.39952 c -10.23067,16.69948 -20.46134,33.39895 -32.12435,33.39895 m 32.12224,-33.39607 c 10.23068,-16.69945 20.46135,-33.39892 32.12429,-33.39892 m 32.09485,33.39949 c -10.23068,-16.69945 -20.46141,-33.39892 -32.12435,-33.39892 m 32.12303,33.39641 c 10.23067,16.69947 20.46134,33.39895 32.12428,33.39895 m 32.09485,-33.39952 c -10.23074,16.69948 -20.46141,33.39895 -32.12428,33.39895 m 32.12224,-33.39608 c 10.23067,-16.69944 20.46135,-33.39891 32.12435,-33.39891 m 32.09485,33.39948 C 489.2574,286.2131 479.02673,269.51363 467.36379,269.51363 m 32.11823,33.39083 c 10.23067,16.69947 20.46128,33.39894 32.12422,33.39894 m 32.09484,-33.39951 c -10.2306,16.69947 -20.46127,33.39894 -32.12428,33.39894 m 32.12224,-33.39607 c 10.23074,-16.69944 20.46148,-33.39891 32.12435,-33.39891 m 32.09487,33.39948 c -10.23074,-16.69944 -20.46141,-33.39891 -32.12437,-33.39891 m 32.12082,33.40609 c 10.23054,16.69947 20.46127,33.39895 32.12421,33.39895 m 32.09485,-33.39952 c -10.23067,16.69948 -20.46134,33.39895 -32.12421,33.39895 m 32.12211,-33.39607 c 10.2306,-16.69945 20.46147,-33.39892 32.12441,-33.39892"
       inkscape:connector-curvature="0"
       clip-path="url(#clipPath4645-3)" />
  </g>
  <path
     style="opacity:0.34000017;fill:#b6d0ff;fill-opacity:0;stroke:#1a1a1a;stroke-width:2.80062985;stroke-linecap:round;stroke-miterlimit:4;stroke-dasharray:none;stroke-opacity:0.34117647"
     d="M -1185.7279,249.80711 V 37.781585 h 316.5184 316.51843 l -0.004,116.238665 c -0.002,63.93126 -0.64616,140.36682 -1.43014,169.8568 l -1.42545,53.61813 -30.7674,3.8712 c -16.92208,2.12914 -33.42657,4.39183 -36.67665,5.02817 -5.76624,1.12901 -5.84911,0.99773 -3.42464,-5.42548 2.06104,-5.46029 1.82893,-7.58315 -1.36151,-12.45236 -6.55724,-10.00761 -18.44213,-4.45474 -28.99071,13.54503 -5.79109,9.88174 -4.23213,9.27263 -34.95014,13.65591 -23.98253,3.4222 -23.62747,3.52853 -30.94917,-9.26849 -9.138,-15.97154 -16.1931,-22.10787 -25.418,-22.10787 -10.17175,0 -18.43045,8.23269 -28.30362,28.21445 l -7.8179,15.82219 -14.66738,1.50403 c -8.06707,0.82723 -16.83251,2.01592 -19.47876,2.64151 -4.1864,0.98974 -5.86819,-1.0288 -12.94766,-15.54018 -11.51378,-23.60073 -19.79309,-32.642 -29.89108,-32.642 -11.52232,0 -19.15742,8.49332 -32.47828,36.12909 l -11.31506,23.47449 -11.67885,1.45917 c -6.42336,0.80256 -12.34099,0.79706 -13.15025,-0.0131 -0.80928,-0.80926 -7.39487,-12.93028 -14.63465,-26.93557 -9.7575,-18.87576 -15.12585,-26.78206 -20.74873,-30.55782 -15.64678,-10.50689 -24.90063,-2.38577 -45.9775,40.34957 -8.5283,17.29188 -16.9863,32.00785 -18.7955,32.70212 -5.1768,1.98651 -8.6886,-3.06982 -25.4519,-36.64633 -12.2282,-24.49285 -17.3397,-32.53236 -23.1169,-36.35911 -9.47,-6.27293 -12.3887,-6.18108 -16.7848,0.52817 -4.7135,7.19366 -2.508,15.38719 5.1151,19.00342 4.5106,2.13971 9.132,9.23992 18.715,28.75308 6.9989,14.25145 11.9104,26.64016 10.9144,27.53047 -0.9964,0.89116 -26.3688,4.81293 -56.3834,8.71593 -30.0147,3.90298 -57.7646,7.60516 -61.6666,8.22706 l -7.0943,1.13069 z m 170.9835,106.97628 c 3.3965,-3.16673 12.9329,-19.60111 21.19187,-36.52085 16.36619,-33.52856 20.05111,-38.44669 25.0562,-33.44159 1.69933,1.69933 9.88821,16.84057 18.19751,33.64722 16.43534,33.24262 24.61702,43.29101 35.24872,43.29101 10.63072,0 18.71979,-10.02606 35.20949,-43.64067 8.33884,-16.99894 16.59794,-32.09927 18.35355,-33.55628 5.17108,-4.29162 8.54623,0.2948 24.75274,33.63602 16.32021,33.5751 24.3881,43.56093 35.19427,43.56093 10.63171,0 18.81338,-10.04839 35.24872,-43.29101 8.30931,-16.80665 16.49818,-31.94789 18.19752,-33.64722 5.01878,-5.01878 8.82577,0.0463 24.34053,32.38378 18.83363,39.25519 27.75554,48.56017 41.84993,43.64685 8.59084,-2.99479 14.1449,-11.15669 31.29754,-45.99288 11.41798,-23.18936 16.07597,-30.51919 20.838,-32.7905 11.64921,-5.5563 7.56866,-25.99629 -4.46577,-22.36969 -9.50387,2.86401 -17.45359,13.66877 -32.25087,43.83335 -8.33884,16.99894 -16.70425,32.18748 -18.58976,33.75232 -4.60279,3.81999 -6.49393,1.12829 -23.95754,-34.0991 -14.48519,-29.21932 -26.83738,-44.74915 -35.59278,-44.74915 -9.43642,0 -19.98847,13.30172 -35.42955,44.66182 -8.29811,16.85308 -16.57399,32.11673 -18.39087,33.91918 -2.94029,2.91697 -3.75697,2.67888 -7.42976,-2.16599 -2.2695,-2.99376 -10.45203,-18.25772 -18.1834,-33.9199 -14.31564,-29.0006 -25.18775,-42.49511 -34.23696,-42.49511 -9.04922,0 -19.92132,13.49451 -34.23697,42.49511 -17.34886,35.14526 -20.86394,40.17904 -25.41776,36.39968 -1.8213,-1.51154 -9.68783,-15.8216 -17.48119,-31.80015 -20.32194,-41.66563 -30.82062,-51.91146 -44.75696,-43.67908 -7.9196,4.67823 -12.78788,12.1394 -28.39375,43.51648 -16.5413,33.25799 -18.3391,35.72984 -23.1078,31.77219 -1.981,-1.64407 -10.3591,-16.83261 -18.6181,-33.75233 -14.6705,-30.05486 -22.5788,-40.83546 -32.049,-43.68932 -12.013,-3.62016 -16.119,16.81154 -4.4927,22.35674 4.6977,2.2406 9.3855,9.54402 20.3258,31.66702 17.3127,35.00881 21.885,41.96421 30.3232,46.12828 7.8626,3.87995 13.2152,2.61584 21.4559,-5.06716 z"
     id="path4650"
     inkscape:connector-curvature="0" />
  <path
     style="opacity:0.34000017;fill:#b6d0ff;fill-opacity:0;stroke:#1a1a1a;stroke-width:2.80062985;stroke-linecap:round;stroke-miterlimit:4;stroke-dasharray:none;stroke-opacity:0.34117647"
     d="m -1184.5169,397.60724 c -0.8143,-34.02396 -1.1743,-128.65806 -0.8,-210.29798 l 0.6804,-148.436232 h 315.427 315.42698 l -0.39822,135.338912 c -0.21903,74.4364 -1.05154,150.15606 -1.85002,168.26591 l -1.45179,32.92698 -30.89327,3.9286 c -16.9913,2.16073 -32.02586,4.35678 -33.41014,4.88008 -1.6235,0.61377 -2.4404,-1.74606 -2.30143,-6.64826 0.27783,-9.80209 -3.79288,-14.53369 -12.50366,-14.53369 -7.22625,0 -13.13514,4.91345 -22.69778,18.87399 -4.89167,7.1414 -10.17438,8.72237 -43.22583,12.93622 l -11.21034,1.42924 -9.04804,-13.32383 c -19.06794,-28.07879 -34.99871,-26.30155 -53.76611,5.99813 l -10.07304,17.33626 -15.64976,1.76185 c -8.60736,0.96901 -16.50148,1.79748 -17.54252,1.84101 -1.04102,0.0434 -5.95251,-7.04575 -10.91443,-15.75398 -25.33481,-44.46307 -39.80361,-41.94674 -67.78117,11.78806 -7.95496,15.27859 -8.33142,15.63217 -18.22365,17.1156 -11.83705,1.77508 -10.50097,3.09642 -27.8476,-27.54027 -24.62354,-43.48872 -37.78748,-43.17089 -62.09298,1.49925 -5.1881,9.53495 -12.855,23.07605 -17.0375,30.09132 -7.3598,12.34454 -7.7309,12.62555 -11.5303,8.73154 -2.1591,-2.21292 -10.4475,-16.30223 -18.4184,-31.30957 -19.4667,-36.65069 -33.127,-48.979 -41.7233,-37.65477 -5.2623,6.93212 -3.5397,14.25629 5.3113,22.58409 9.0391,8.50472 28.5554,48.9802 25.1593,52.17893 -1.0216,0.96231 -24.9415,4.83542 -53.1553,8.60695 -28.2138,3.77152 -54.3758,7.39509 -58.1379,8.05236 l -6.8401,1.19506 z m 164.7483,-36.11268 c 8.1112,-5.59045 9.8195,-8.18553 24.85341,-37.75495 15.46718,-30.42167 21.11665,-38.5987 25.00664,-36.19456 1.43197,0.88501 8.09767,12.58331 14.81262,25.99621 23.28596,46.51286 33.02986,56.51687 47.38325,48.64825 8.95911,-4.91145 10.97869,-7.86496 29.63876,-43.34504 8.67737,-16.49908 16.72047,-30.5814 17.87356,-31.29405 3.78582,-2.33974 7.8005,3.25189 19.34635,26.94561 21.23792,43.58321 31.4924,54.48786 45.70364,48.60138 8.13594,-3.37002 15.00365,-13.36908 32.79183,-47.74335 8.66859,-16.75138 15.58854,-27.63206 17.57352,-27.63206 2.00136,0 9.66582,12.26827 19.71449,31.55647 18.82554,36.1351 26.62693,45.93597 36.56463,45.93597 11.10521,0 18.62333,-8.82706 35.51991,-41.7041 8.68824,-16.90542 19.09211,-33.93747 23.11969,-37.84901 11.59082,-11.25685 8.78609,-27.70953 -4.1694,-24.45792 -8.58374,2.15438 -16.85493,13.15542 -34.19268,45.47769 -9.21863,17.18599 -18.0854,31.24727 -19.70395,31.24727 -1.61854,0 -10.40662,-14.05636 -19.52905,-31.23635 -32.74693,-61.67136 -41.67601,-61.64683 -74.55841,0.20475 -9.07355,17.06744 -17.85766,31.0316 -19.52026,31.0316 -1.66259,0 -10.4467,-13.96416 -19.52025,-31.03149 -32.88614,-61.85872 -41.72652,-61.89691 -74.35392,-0.32121 -9.63261,18.17903 -17.93596,31.3527 -19.7616,31.3527 -1.82303,0 -10.10453,-13.10166 -19.67074,-31.11987 -22.5772,-42.52471 -31.0378,-50.67526 -45.07042,-43.41869 -7.88186,4.07586 -14.28164,13.593 -29.73352,44.21682 -14.9833,29.69516 -17.4599,33.15098 -21.4087,29.8737 -1.6343,-1.35635 -10.2331,-16.32303 -19.1083,-33.25927 -15.9649,-30.4651 -26.5476,-43.78513 -34.7871,-43.78513 -10.9519,0 -12.6164,15.66428 -2.5515,24.01174 3.9407,3.26828 13.4131,18.59085 23.6155,38.2005 12.7976,24.59789 18.8483,33.96509 24.3229,37.65478 8.732,5.88512 12.6474,6.12077 19.7991,1.19161 z"
     id="path4652"
     inkscape:connector-curvature="0" />
  <path
     style="opacity:0.34000017;fill:#b6d0ff;fill-opacity:0;stroke:#1a1a1a;stroke-width:2.80062985;stroke-linecap:round;stroke-miterlimit:4;stroke-dasharray:none;stroke-opacity:0.34117647"
     d="m -1182.1244,433.59473 c -0.7813,-12.77036 -1.4206,-106.5614 -1.4206,-208.42455 V 39.964471 h 314.63809 314.63813 l -1.39945,153.347719 c -0.7697,84.34125 -1.99402,159.3184 -2.72072,166.61587 l -1.32128,13.26813 -28.68799,3.67724 c -36.20702,4.64103 -34.1452,4.81477 -34.1452,-2.87713 0,-4.49415 -1.65574,-7.58321 -5.3685,-10.01591 -8.40756,-5.50884 -17.25065,-2.29216 -27.67048,10.06513 -9.82394,11.65061 -14.39774,13.68451 -38.99625,17.34104 l -16.37164,2.43364 -6.22963,-7.2085 c -18.66618,-21.59928 -21.24674,-23.58014 -30.71905,-23.58014 -7.66018,0 -10.33878,1.29316 -16.95574,8.18582 -4.32211,4.5022 -11.33703,13.69221 -15.58868,20.42227 -7.20429,11.40381 -8.42861,12.33217 -17.99248,13.64303 -21.33186,2.92387 -21.13948,3.01566 -33.47665,-15.97254 -13.22327,-20.35198 -19.9404,-26.27858 -29.78377,-26.27858 -10.40864,0 -17.76695,7.33093 -32.66826,32.54676 -11.09173,18.76928 -14.13231,22.3789 -20.30267,24.10224 -3.99145,1.1148 -8.66462,1.48685 -10.38478,0.82675 -1.72018,-0.66009 -8.67843,-10.17854 -15.46282,-21.15214 -17.06163,-27.59681 -20.03867,-31.30038 -28.31833,-35.22933 -12.92398,-6.13284 -21.43788,1.05798 -40.05695,33.83189 -18.1569,31.96061 -22.1241,37.41859 -25.2888,34.79212 -1.6033,-1.33062 -7.5237,-10.43992 -13.1564,-20.24288 -19.2489,-33.49981 -27.0283,-44.40213 -34.5881,-48.47338 -6.4062,-3.44997 -7.9252,-3.58037 -11.0919,-0.95226 -9.8048,8.13731 -8.4041,15.71234 6.2846,33.98665 8.3294,10.3626 19.9732,36.36365 18.2709,40.79969 -0.8334,2.17188 -15.6339,5.01179 -52.1217,10.00113 -28.0267,3.83238 -53.0197,7.41273 -55.54,7.95635 -4.3632,0.94116 -4.6501,-0.12158 -6.0029,-22.23042 z m 502.64763,-69.3795 c 6.83458,-3.53431 13.72365,-13.75762 30.64914,-45.48303 6.27313,-11.75848 14.55631,-25.51066 18.40703,-30.5604 9.04706,-11.86405 10.3901,-15.66921 7.86998,-22.29761 -1.60086,-4.21056 -3.6232,-5.43826 -8.95828,-5.43826 -9.59699,0 -17.54948,9.16216 -34.24865,39.45825 -7.55985,13.71527 -15.67611,27.39262 -18.03611,30.39409 -4.24997,5.40515 -4.32327,5.41557 -7.68025,1.09144 -1.86414,-2.40117 -7.91992,-12.71531 -13.45727,-22.9203 -14.89808,-27.45616 -26.08284,-43.19721 -33.37187,-46.96653 -12.92628,-6.68444 -20.8029,1.75495 -49.9465,53.51519 -5.74592,10.20499 -11.69858,18.55453 -13.22813,18.55453 -1.52957,0 -6.3441,-6.17517 -10.69896,-13.7226 -25.54415,-44.27063 -30.7402,-52.14299 -37.42795,-56.70581 -4.51482,-3.08031 -8.95483,-4.46219 -11.78693,-3.66849 -7.65056,2.14407 -19.19503,17.14864 -32.92117,42.78821 -7.20352,13.45574 -14.95137,26.82257 -17.21744,29.70407 l -4.12014,5.23908 -5.92463,-9.45733 c -3.25857,-5.20153 -11.2275,-19.21651 -17.70873,-31.14439 -14.62791,-26.9207 -22.87173,-36.15941 -32.26558,-36.15941 -10.95145,0 -20.27702,10.96409 -38.06169,44.74915 -8.848,16.80822 -17.3989,30.5604 -19.0021,30.5604 -1.6032,0 -10.3511,-13.53736 -19.4398,-30.08302 -19.8473,-36.13126 -27.2904,-45.22653 -37.0109,-45.22653 -5.407,0 -7.3708,1.2168 -9.0371,5.59932 -3.0367,7.98722 -2.9774,8.1748 6.057,19.14871 4.5022,5.46874 15.0619,22.87385 23.466,38.678 16.3992,30.83905 25.533,41.35248 35.9261,41.35248 10.5512,0 18.3142,-9.17244 35.08347,-41.45291 8.74979,-16.84317 17.33224,-31.80537 19.07212,-33.24934 4.13122,-3.42862 5.92447,-0.94271 22.73308,31.51414 17.14294,33.10242 25.58272,43.18811 36.14016,43.18811 11.24046,0 20.04472,-10.41771 38.74103,-45.8406 9.00477,-17.06087 16.88165,-29.46896 18.70744,-29.46896 1.83347,0 9.59985,12.33643 18.55214,29.46896 31.74045,60.74345 44.17378,61.27655 74.7805,3.20642 7.57376,-14.3697 15.18489,-28.03349 16.91361,-30.36398 3.11135,-4.19444 3.17478,-4.19444 6.27359,0 1.72175,2.33049 9.81384,16.8584 17.98239,32.28422 14.51785,27.416 27.02808,42.89683 34.66543,42.89683 1.85704,0 6.14552,-1.43195 9.52997,-3.1821 z"
     id="path4654"
     inkscape:connector-curvature="0" />
</svg>
