<?xml version="1.0" standalone="no"?>
<!DOCTYPE svg PUBLIC "-//W3C//DTD SVG 20010904//EN"
 "http://www.w3.org/TR/2001/REC-SVG-20010904/DTD/svg10.dtd">
<svg version="1.0" xmlns="http://www.w3.org/2000/svg"
 width="635.000000pt" height="635.000000pt" viewBox="0 0 635.000000 635.000000"
 preserveAspectRatio="xMidYMid meet">
<metadata>
Created by potrace 1.14, written by Peter Selinger 2001-2017
</metadata>
<g transform="translate(0.000000,635.000000) scale(0.100000,-0.100000)"
fill="#000000" stroke="none">
<path d="M0 3175 l0 -3175 3175 0 3175 0 0 3175 0 3175 -3175 0 -3175 0 0
-3175z m1108 898 c52 -29 127 -133 187 -258 24 -49 77 -161 118 -247 112 -234
158 -287 208 -242 34 31 86 125 184 334 108 232 166 330 229 388 90 83 165 77
262 -22 64 -65 53 -45 285 -521 59 -121 113 -195 143 -195 40 0 96 89 209 329
161 346 227 439 326 462 120 27 219 -80 361 -391 130 -284 200 -400 240 -400
31 0 88 78 149 205 32 66 93 190 134 275 114 234 190 314 295 312 96 -1 165
-79 283 -322 45 -91 105 -215 135 -275 57 -118 114 -195 144 -195 40 0 112
119 235 390 76 168 136 269 195 331 88 92 168 100 206 21 29 -61 0 -145 -54
-158 -62 -15 -103 -78 -237 -364 -109 -233 -169 -335 -228 -385 -149 -128
-273 -33 -444 340 -128 281 -202 405 -243 405 -34 0 -81 -73 -181 -280 -169
-349 -198 -400 -268 -462 -106 -97 -211 -66 -316 93 -26 38 -95 172 -154 298
-135 286 -184 361 -229 347 -35 -11 -101 -121 -197 -326 -119 -255 -157 -323
-218 -387 -112 -119 -218 -105 -323 43 -25 35 -88 152 -140 261 -152 317 -197
396 -237 409 -46 15 -106 -79 -252 -396 -85 -184 -137 -271 -197 -331 -95 -95
-172 -90 -274 16 -62 64 -108 147 -262 476 -74 159 -114 216 -166 239 -24 10
-51 29 -60 41 -33 48 -11 150 37 169 29 11 62 3 115 -27z m-32 -1027 c76 -50
141 -156 278 -453 84 -183 154 -298 187 -308 37 -12 92 59 171 225 39 80 96
199 128 265 149 309 282 379 426 223 57 -62 104 -144 190 -330 135 -292 194
-388 237 -388 9 0 31 19 50 43 39 48 64 95 211 399 95 196 112 224 169 282 71
72 110 87 178 67 85 -26 155 -116 261 -340 146 -305 180 -370 217 -412 35 -40
40 -42 63 -32 39 18 92 108 202 342 57 120 119 245 140 279 47 78 135 159 182
168 122 23 216 -83 366 -409 124 -271 194 -387 233 -387 21 0 82 75 117 142
17 35 58 119 90 188 166 355 238 453 345 467 35 5 42 2 66 -27 21 -25 27 -42
27 -82 0 -41 -5 -54 -29 -79 -16 -16 -39 -29 -50 -29 -30 0 -85 -78 -148 -210
-202 -421 -214 -442 -277 -506 -97 -99 -172 -105 -262 -22 -63 58 -121 156
-228 386 -96 207 -150 305 -185 336 -51 46 -96 -8 -213 -252 -44 -92 -97 -203
-118 -247 -143 -298 -295 -357 -441 -173 -23 29 -84 141 -136 248 -152 315
-176 360 -211 401 -18 21 -42 39 -53 39 -28 0 -94 -90 -149 -204 -26 -56 -79
-167 -118 -247 -108 -228 -177 -315 -264 -337 -73 -19 -147 19 -213 110 -42
57 -72 113 -229 440 -75 157 -132 238 -166 238 -41 0 -105 -107 -234 -389
-152 -330 -254 -439 -374 -398 -105 36 -169 131 -334 492 -87 190 -141 273
-192 295 -23 9 -47 24 -54 33 -37 44 -32 128 11 168 28 27 79 21 133 -15z"/>
</g>
</svg>
